<?xml version="1.0" standalone="no"?>
<!DOCTYPE svg PUBLIC "-//W3C//DTD SVG 1.1//EN" "http://www.w3.org/Graphics/SVG/1.1/DTD/svg11.dtd" >
<svg xmlns="http://www.w3.org/2000/svg">
<metadata></metadata>
<defs>
<font id="signikasemibold" horiz-adv-x="1085" >
<font-face units-per-em="2048" ascent="1638" descent="-410" />
<missing-glyph horiz-adv-x="450" />
<glyph horiz-adv-x="0" />
<glyph horiz-adv-x="0" />
<glyph horiz-adv-x="682" />
<glyph unicode="&#xd;" horiz-adv-x="380" />
<glyph unicode=" "  horiz-adv-x="450" />
<glyph unicode="&#x09;" horiz-adv-x="450" />
<glyph unicode="&#xa0;" horiz-adv-x="450" />
<glyph unicode="!" horiz-adv-x="610" d="M145 117q0 72 19 108q60 31 135 31q78 0 135 -31q21 -40 21 -108q0 -69 -21 -109q-51 -28 -135 -28q-81 0 -135 28q-19 36 -19 109zM162 1339q47 35 122 55.5t162 20.5l17 -20l-62 -981q-46 -13 -100 -13q-61 0 -104 13z" />
<glyph unicode="&#x22;" horiz-adv-x="862" d="M90 1456q0 58 12 111q52 30 125 30t123 -30q15 -66 15 -111q0 -16 -12 -80t-29.5 -165.5t-28.5 -186.5q-23 -14 -67.5 -14t-67.5 14q-11 86 -28.5 187.5t-29.5 165t-12 79.5zM500 1456q0 58 12 111q52 30 125 30t123 -30q14 -61 14 -111q0 -16 -11.5 -80t-29 -166 t-28.5 -186q-23 -14 -68 -14t-68 14q-11 85 -28.5 187t-29 165.5t-11.5 79.5z" />
<glyph unicode="#" horiz-adv-x="1398" d="M42 400.5q0 61.5 15 107.5h248l76 332h-219q-17 46 -17 107.5t17 107.5h266l61 266q44 19 120.5 19t117.5 -19l-61 -266h249l62 266q44 19 119.5 19t115.5 -19l-61 -266h197q15 -46 15 -107.5t-15 -107.5h-244l-76 -332h215q17 -46 17 -107.5t-17 -107.5h-262l-59 -266 q-43 -20 -119.5 -20t-116.5 20l59 266h-249l-60 -266q-43 -20 -119.5 -20t-117.5 20l59 266h-201q-15 46 -15 107.5zM543 508h250l75 332h-250z" />
<glyph unicode="$" horiz-adv-x="1034" d="M55 197q2 53 33 114.5t70 85.5q211 -112 366 -112q71 0 116.5 28.5t45.5 79.5q0 41 -31 75t-88 54l-198 72q-265 99 -265 315q0 129 85 220t225 116v166q33 8 100 8q64 0 100 -8v-164q161 -15 322 -88q0 -58 -26 -115.5t-68 -93.5q-190 82 -320 82q-66 0 -103.5 -27.5 t-37.5 -76.5q0 -38 27.5 -60t89.5 -45l192 -71q129 -47 204 -133t75 -209q0 -135 -99.5 -226.5t-263.5 -111.5v-154q-27 -6 -100 -6q-75 0 -100 6v158q-105 14 -199 48t-152 73z" />
<glyph unicode="%" horiz-adv-x="1945" d="M94 993q0 236 103 342q90 90 235 90q147 0 234 -90q104 -102 104 -342q0 -242 -104 -344q-84 -90 -234 -90q-145 0 -235 90q-103 103 -103 344zM315 993q0 -60 4.5 -103t16.5 -82t36 -59t60 -20t60 20t36 59t16.5 82t4.5 103q0 59 -4.5 101.5t-16.5 81.5t-36 59t-60 20 t-60 -20t-36 -59t-16.5 -81.5t-4.5 -101.5zM457 0l772 1399q55 13 139.5 12t120.5 -12l-774 -1399q-53 -13 -138.5 -12t-119.5 12zM1176 408q0 238 102 342q90 90 235 90q147 0 234 -90q104 -104 104 -342q0 -243 -104 -345q-84 -90 -234 -90q-148 0 -235 90 q-102 102 -102 345zM1397 408q0 -60 4.5 -103t16 -82t35.5 -59.5t60 -20.5t60 20.5t36 59.5t16.5 82t4.5 103q0 59 -4.5 101.5t-16.5 81.5t-36 59t-60 20t-60 -20t-35.5 -59t-16 -81.5t-4.5 -101.5z" />
<glyph unicode="&#x26;" horiz-adv-x="1310" d="M92 367q0 139 76.5 242t187.5 139q-91 33 -147.5 117t-56.5 192q0 164 118.5 267t319.5 103q222 0 405 -65q2 -52 -17 -110t-52 -95q-163 55 -299 55q-93 0 -143 -48.5t-50 -127.5q0 -184 228 -184h387q125 0 206 35q35 -41 35 -125q0 -139 -174 -139h-55q0 -25 1 -67.5 t1 -57.5v-179q0 -118 14 -319q-53 -16 -125 -16q-69 0 -123 14l-18 86q-140 -113 -324 -113q-186 0 -290.5 113t-104.5 283zM373 389q0 -99 51.5 -153t134.5 -54q72 0 135 25.5t105 62.5v226q0 80 2 127h-162q-131 0 -198.5 -64.5t-67.5 -169.5z" />
<glyph unicode="'" horiz-adv-x="464" d="M86 1456q0 58 12 111q52 30 125 30t123 -30q14 -61 14 -111q0 -16 -11.5 -80t-29 -166t-28.5 -186q-23 -14 -67.5 -14t-67.5 14q-11 86 -28.5 187.5t-29.5 165t-12 79.5z" />
<glyph unicode="(" horiz-adv-x="724" d="M123 662q0 185 45 374.5t139 370t225 305.5q109 -36 156 -141q-140 -190 -211 -429.5t-71 -479.5q0 -239 71 -478.5t211 -429.5q-47 -105 -156 -141q-131 125 -225 305.5t-139 370t-45 373.5z" />
<glyph unicode=")" horiz-adv-x="724" d="M37 -246q140 190 211 429.5t71 478.5q0 240 -71 479.5t-211 429.5q47 105 156 141q131 -125 225 -305.5t139 -370t45 -374.5q0 -184 -45 -373.5t-139 -370t-225 -305.5q-109 36 -156 141z" />
<glyph unicode="*" horiz-adv-x="1050" d="M82 1094q-3 42 19 110.5t51 100.5l114 -41q78 -31 197 -115q-2 6 -7.5 27.5t-7.5 29t-7 27t-7.5 29.5t-5.5 27t-5 29t-3.5 26.5t-1.5 27.5l-4 123q38 17 109.5 17t111.5 -17l-4 -123q-1 -21 -4 -42.5t-8.5 -47t-9.5 -42t-12 -47t-11 -42.5q110 77 196 109l117 43 q27 -32 50 -99t20 -110l-121 -35q-71 -21 -223 -25q121 -100 163 -153l76 -97q-20 -35 -78 -78t-100 -53l-68 103q-7 11 -14.5 23.5l-13.5 22.5t-13 26t-11 24.5t-11.5 27t-10 25t-10.5 27.5t-10 26q-48 -133 -94 -200l-68 -103q-41 9 -99 50.5t-81 78.5l76 97 q20 26 52.5 57t51.5 46.5t62 49.5q-142 4 -223 27z" />
<glyph unicode="+" d="M100 606q0 63 11 111h196q21 0 61 -1t60 -1q0 20 -1 60.5t-1 62.5v211q49 10 117 10q67 0 116 -10v-211q0 -22 -1 -62.5t-1 -60.5q19 0 59 1t62 1h197q10 -65 10 -111q0 -53 -10 -108h-197q-22 0 -62 1t-59 1q0 -21 1 -60.5t1 -58.5v-213q-49 -10 -114 -10q-70 0 -119 10 v213q0 19 1 58.5t1 60.5q-20 0 -60 -1t-61 -1h-196q-11 45 -11 108z" />
<glyph unicode="," horiz-adv-x="579" d="M55 -223q74 29 124 83.5t59 123.5q-61 8 -86 30q-9 15 -16 48t-7 61q0 77 23 115q55 32 141 32q37 0 77.5 -9t61.5 -23q25 -62 25 -150q0 -143 -87.5 -264.5t-246.5 -173.5q-34 17 -52.5 53.5t-15.5 73.5z" />
<glyph unicode="-" horiz-adv-x="745" d="M88 549q0 66 12 110h543q12 -44 12 -110q0 -67 -12 -111h-543q-12 44 -12 111z" />
<glyph unicode="." horiz-adv-x="563" d="M117 127q0 69 20 113q62 32 146 32q81 0 143 -32q20 -44 20 -113q0 -71 -20 -115q-53 -32 -143 -32t-146 32q-20 44 -20 115z" />
<glyph unicode="/" horiz-adv-x="894" d="M8 -150l645 1717q134 -14 230 -88l-645 -1715q-132 10 -230 86z" />
<glyph unicode="0" d="M78 664q0 204 29.5 337t117.5 228q60 62 134.5 94.5t183.5 32.5q110 0 183 -32t134 -95q88 -95 118 -228t30 -337t-30 -337.5t-118 -230.5q-61 -61 -134.5 -93t-182.5 -32q-108 0 -182.5 32t-135.5 93q-88 96 -117.5 229.5t-29.5 338.5zM354 664q0 -317 58 -410 q39 -76 131 -76t131 76q57 92 57 410q0 317 -57 409q-39 76 -131 76t-131 -76q-58 -93 -58 -409z" />
<glyph unicode="1" d="M88 924q288 179 393 403q56 10 127 10q66 0 125 -10v-962q0 -25 -1 -73t-1 -73q16 0 66.5 1t64.5 1h125q12 -50 12 -110q0 -59 -12 -111h-815q-12 52 -12 111q0 61 12 110h178q13 0 60 -1t63 -1q0 25 -1 73t-1 73v362q0 24 2 64.5t5.5 94.5t4.5 85q-57 -65 -132 -119 t-150 -86q-41 21 -72.5 64.5t-40.5 93.5z" />
<glyph unicode="2" d="M92 164q0 157 246 377l211 188q129 112 129 234q0 77 -46 125.5t-122 48.5q-75 0 -129.5 -54t-81.5 -135q-55 2 -111.5 24.5t-81.5 59.5q44 140 158 232t273 92q190 0 302.5 -109.5t112.5 -290.5q0 -55 -14 -105.5t-35 -89t-56.5 -81t-66.5 -71.5t-78 -70l-151 -129 q-150 -128 -184 -199q159 18 292 18h328q0 -53 -6 -102q-21 -129 -168 -129h-623q-98 98 -98 166z" />
<glyph unicode="3" d="M86 113q9 46 41 94.5t74 81.5q135 -101 274 -101q107 0 173.5 62.5t66.5 173.5q0 96 -57 151.5t-148 55.5q-65 0 -125 -29q-34 15 -62.5 56t-39.5 87l221 236q95 95 139 129l-8 12q-32 -10 -100.5 -16t-116.5 -6h-268q-17 50 -17 100q0 72 23 127h727q55 -99 55 -162 q0 -58 -53 -114l-185 -193q-39 -39 -67 -57q159 -14 257.5 -113.5t98.5 -273.5q0 -105 -40 -190.5t-107 -140t-152.5 -83.5t-179.5 -29q-130 0 -240.5 39t-183.5 103z" />
<glyph unicode="4" d="M59 420q0 38 39 131l338 790q58 12 136 -4t110 -49l-184 -432q-104 -259 -185 -381l6 -8q120 12 254 12h2v51v113q0 97 48.5 154t134.5 57h65l13 -12v-234q0 -23 -1 -65.5t-1 -63.5q21 0 52 1t54 1h80q8 -44 8 -98q0 -63 -18 -125h-176q0 -21 1 -63.5t1 -65.5v-129 q-59 -10 -131 -10q-74 0 -130 10v129q0 23 1.5 65.5t1.5 63.5q-21 0 -65 -2t-67 -2h-327q-60 96 -60 166z" />
<glyph unicode="5" d="M94 109q8 41 40.5 94.5t70.5 81.5q140 -97 266 -97q100 0 167 65.5t67 188.5q0 120 -66 178t-162 58q-106 0 -201 -76q-35 7 -74 34t-59 58l33 619l17 14h718q19 -51 19 -110q0 -55 -30 -85t-85 -30h-344h-45q0 -17 -1 -44t-1 -34l-8 -119l-6 -43q74 23 143 23 q199 0 313.5 -116.5t114.5 -313.5q0 -120 -41.5 -215t-111.5 -152.5t-155.5 -87t-180.5 -29.5q-118 0 -222 37t-176 101z" />
<glyph unicode="6" d="M84 662q0 324 142 509t401 185q188 0 317 -68q-5 -55 -28.5 -105.5t-61.5 -80.5q-99 43 -207 43q-138 0 -207.5 -94.5t-77.5 -259.5q124 98 273 98q174 0 273.5 -111t99.5 -336q0 -214 -129.5 -342.5t-323.5 -128.5q-215 0 -334 144q-47 63 -70 116q-67 157 -67 431z M362 557q0 -233 70 -319q48 -66 127 -66q89 0 134.5 68.5t45.5 185.5q0 246 -174 246q-105 0 -203 -88v-27z" />
<glyph unicode="7" d="M106 1192q0 74 25 135h825q50 -107 50 -164q0 -49 -39 -104l-74 -107q-144 -204 -222 -409t-102 -459l-6 -84q-44 -10 -135 -10q-88 0 -139 10l8 92q22 242 104.5 457.5t204.5 384.5l25 33q23 32 61 77t62 68l-9 10q-41 -11 -138.5 -16.5t-157.5 -5.5h-330q-13 44 -13 92 z" />
<glyph unicode="8" d="M72 336q0 109 64 199.5t165 148.5q-197 119 -197 315q0 153 125 255t314 102q195 0 314.5 -97.5t119.5 -252.5q0 -94 -54 -168.5t-141 -122.5q232 -130 232 -365q-1 -116 -67 -203t-174.5 -131.5t-242.5 -44.5q-209 0 -333.5 97.5t-124.5 267.5zM342 354q0 -88 55 -141 t144 -53q88 0 143 54t55 138q0 81 -57 140.5t-154 93.5l-45 16h-2q-69 -49 -104 -114t-35 -134zM369 1001q0 -133 202 -196l27 -10q119 77 119 200q0 75 -49.5 121.5t-126.5 46.5q-74 0 -123 -46t-49 -116z" />
<glyph unicode="9" d="M78 885q0 214 129 342.5t323 128.5q215 0 334 -144q22 -30 29.5 -40t33.5 -61.5t38 -101.5t24 -142t12 -201q0 -324 -142 -509.5t-400 -185.5q-189 0 -318 68q5 55 28.5 105.5t61.5 80.5q99 -43 207 -43q138 0 207.5 95.5t75.5 259.5q-121 -99 -270 -99 q-174 0 -273.5 111t-99.5 336zM346 901q0 -246 174 -246q108 0 203 86v29q0 234 -70 320q-51 65 -127 65q-89 0 -134.5 -68.5t-45.5 -185.5z" />
<glyph unicode=":" horiz-adv-x="577" d="M123 127q0 69 20 113q62 32 146 32q81 0 143 -32q21 -47 21 -113q0 -69 -21 -115q-53 -32 -143 -32t-146 32q-20 44 -20 115zM123 780q0 69 20 113q64 33 146 33q79 0 143 -33q21 -47 21 -113q0 -68 -21 -114q-24 -15 -65.5 -24t-77.5 -9q-88 0 -146 33q-20 44 -20 114z " />
<glyph unicode=";" horiz-adv-x="585" d="M53 -223q74 29 124 83.5t59 123.5q-61 8 -86 30q-9 15 -16 48t-7 61q0 77 23 115q55 32 141 32q37 0 77.5 -9t61.5 -23q25 -62 25 -150q0 -143 -87.5 -264.5t-246.5 -173.5q-34 17 -52.5 53.5t-15.5 73.5zM127 780q0 69 20 113q64 33 146 33q79 0 143 -33q21 -47 21 -113 q0 -68 -21 -114q-24 -15 -65.5 -24t-77.5 -9q-88 0 -146 33q-20 44 -20 114z" />
<glyph unicode="&#x3c;" d="M106 502q-27 116 0 207l742 407q50 -28 85 -85.5t38 -121.5l-428 -223q-65 -36 -164 -72v-16q78 -28 164 -70l428 -223q-6 -64 -41.5 -124.5t-81.5 -86.5z" />
<glyph unicode="=" d="M100 393q0 60 11 111h864q10 -46 10 -111q0 -64 -10 -110h-864q-11 51 -11 110zM100 825q0 60 11 111h864q10 -46 10 -111q0 -64 -10 -110h-864q-11 51 -11 110z" />
<glyph unicode="&#x3e;" d="M115 305l428 223q102 50 164 72v14q-62 22 -164 72l-428 223q4 63 40 122.5t83 88.5l741 -409q27 -113 0 -207l-743 -408q-49 30 -83.5 88t-37.5 121z" />
<glyph unicode="?" horiz-adv-x="837" d="M12 1317q197 110 406 110q190 0 296.5 -98.5t106.5 -261.5q0 -258 -266 -403l-127 -68l-18 -180q-46 -15 -99 -15q-55 0 -104 15l-14 305l20 27l106 51q106 50 163 107t57 132q0 72 -47.5 115t-133.5 43q-101 0 -249 -74q-37 30 -65.5 86.5t-31.5 108.5zM156 113 q0 70 20 108q51 31 135 31q82 0 133 -31q21 -35 21 -108q0 -75 -21 -109q-53 -29 -133 -29q-82 0 -135 29q-20 38 -20 109z" />
<glyph unicode="@" horiz-adv-x="1976" d="M90 457q0 202 70 376.5t192.5 298.5t296 194.5t373.5 70.5q189 0 350.5 -55t279 -155.5t183.5 -251.5t66 -335q0 -145 -37.5 -261t-100.5 -186t-139.5 -106.5t-159.5 -36.5q-176 0 -266 121q-59 -58 -133 -93.5t-150 -35.5q-157 0 -243 126t-86 337q0 233 113.5 379.5 t316.5 146.5q109 0 211 -42.5t166 -104.5l-2 -514q0 -66 17.5 -94.5t57.5 -28.5q35 0 64.5 21t54.5 65.5t39 125t14 189.5q0 271 -167.5 430.5t-448.5 159.5q-197 0 -349 -95.5t-233.5 -263.5t-81.5 -382q0 -320 157.5 -487t432.5 -167q216 0 410 78q31 -34 49 -86t18 -98 q-105 -44 -239 -71t-256 -27q-186 0 -338 53.5t-265 157.5t-175 269t-62 378zM842 475q0 -135 31 -202.5t102 -67.5q40 0 85 25.5t81 66.5v12v445q-50 47 -125 47q-62 0 -102 -45.5t-56 -116t-16 -164.5z" />
<glyph unicode="A" horiz-adv-x="1280" d="M29 20l456 1379q75 10 160 10q93 0 158 -12l448 -1379q-58 -34 -157 -34q-68 0 -104 30.5t-60 116.5l-58 186q-17 0 -54 -1t-46 -1h-287q-67 0 -100 2l-96 -319q-44 -10 -119 -10q-82 0 -131 18zM453 535q16 0 49.5 1t42.5 1h176q8 0 39 -1t47 -1l-62 208 q-62 206 -110 398h-12q-17 -88 -91 -346z" />
<glyph unicode="B" horiz-adv-x="1249" d="M170 10v1379l14 12q316 8 449 8q223 0 344 -95t121 -276q0 -94 -52.5 -172t-136.5 -112q107 -33 180.5 -133t73.5 -224q0 -195 -128 -301t-371 -106q-152 0 -480 8zM442 186q74 2 209 2q55 0 98 14.5t68 36.5t41 52.5t21.5 59t5.5 59.5q0 39 -11.5 75.5t-37.5 71 t-75.5 55.5t-117.5 21h-201v-447zM442 836h179q59 0 101 16t63.5 44.5t30.5 59.5t9 68q0 36 -9 66.5t-30 58t-62.5 43.5t-100.5 16q-124 0 -181 2v-374z" />
<glyph unicode="C" horiz-adv-x="1241" d="M86 694q0 150 30.5 273t83.5 208t127 143t159.5 85t181.5 27q114 0 210.5 -33.5t161.5 -90t101.5 -132t36.5 -158.5q0 -154 -156 -154q-40 0 -109 15v14q1 44 -5 84q-6 46 -24.5 89.5t-47 74.5t-74 50t-103.5 19q-284 0 -284 -516q0 -233 81 -357t228 -124q93 0 179 39.5 t177 109.5q44 -28 82.5 -80t48.5 -98q-91 -91 -234.5 -151t-299.5 -60q-120 0 -216 41t-157.5 110t-102.5 163.5t-58 195.5t-17 213z" />
<glyph unicode="D" horiz-adv-x="1347" d="M170 10v1379l14 12q235 8 484 8q96 0 200 -25.5t166 -76.5q68 -55 113.5 -123.5t68.5 -149.5t32 -158.5t9 -175.5q0 -99 -8.5 -176.5t-31.5 -158.5t-68.5 -149.5t-114.5 -123.5q-62 -51 -166 -76.5t-200 -25.5q-128 0 -484 8zM444 205q82 2 224 2q77 0 134.5 30.5 t89.5 77t51.5 115.5t25.5 131.5t6 138.5t-6 138.5t-25.5 131t-51.5 115t-89.5 77t-134.5 30.5q-142 0 -224 2v-989z" />
<glyph unicode="E" horiz-adv-x="1167" d="M168 160v1224l14 15h854q11 -56 11 -109q0 -56 -23 -123h-451h-135q0 -27 1 -71t1 -70v-211q51 2 133 2h347q16 -47 16 -112q0 -66 -16 -113h-347h-133v-242q0 -22 -1 -62.5t-1 -64.5q86 4 144 4h501q0 -65 -6 -100q-10 -64 -55.5 -97.5t-120.5 -33.5h-575q-74 0 -116 44 t-42 120z" />
<glyph unicode="F" horiz-adv-x="1083" d="M170 0v1386l14 13h844q12 -47 12 -107q0 -67 -36 -97t-113 -30h-277h-172q2 -68 2 -198v-154h64h403q15 -49 15 -113q0 -62 -15 -114h-403h-64v-586q-56 -10 -135 -10q-83 0 -139 10z" />
<glyph unicode="G" horiz-adv-x="1329" d="M86 690q0 148 35 271.5t95 208t140.5 143.5t170 86.5t184.5 27.5q137 0 266.5 -39.5t230.5 -107.5q-6 -58 -43.5 -114.5t-83.5 -86.5q-163 117 -356 117q-166 0 -261 -123t-95 -385q0 -495 366 -495q112 0 217 24v182q0 91 4 136h-139q-68 0 -99.5 27t-31.5 89 q0 57 21 115l317 2q101 0 144.5 -45.5t43.5 -128.5v-537q-242 -86 -526 -86q-124 0 -223.5 35t-169.5 98.5t-116.5 153.5t-68.5 198t-22 234z" />
<glyph unicode="H" horiz-adv-x="1394" d="M170 0v1399q54 10 137 10t137 -10v-412q0 -29 -1 -76.5t-1 -74.5q14 0 56.5 1t54.5 1h289q12 0 54 -1t54 -1q0 27 -1 74.5t-1 76.5v412q54 10 137 10q84 0 140 -10v-1399q-59 -10 -138 -10q-83 0 -139 10v457q0 29 1 76.5t1 74.5q-12 0 -54 -1t-54 -1h-289q-12 0 -54.5 1 t-56.5 1q0 -27 1 -74.5t1 -76.5v-457q-54 -10 -137 -10t-137 10z" />
<glyph unicode="I" horiz-adv-x="626" d="M176 0v1399q51 10 137 10q82 0 138 -10v-1399q-56 -10 -138 -10q-86 0 -137 10z" />
<glyph unicode="J" horiz-adv-x="942" d="M20 68q19 115 99 204q104 -65 200 -65q114 0 157.5 68.5t43.5 218.5v905q54 10 137 10q84 0 138 -10v-875q0 -100 -11 -177t-40.5 -148.5t-79 -117.5t-129.5 -73.5t-189 -27.5q-82 0 -169.5 23t-156.5 65z" />
<glyph unicode="K" horiz-adv-x="1247" d="M170 0v1399q54 10 137 10t137 -10v-563l82 2q34 0 50 13t36 50l228 406q21 38 37 57.5t44 32t70 12.5q52 0 162 -8l16 -21l-278 -497q-49 -86 -100 -127q96 -20 147.5 -78.5t89.5 -163.5l96 -274q19 -50 26.5 -67.5t27.5 -48.5t47 -54q-27 -40 -78 -63t-107 -23 q-73 0 -108.5 36.5t-63.5 124.5l-94 269q-37 106 -85.5 150t-129.5 44q-21 0 -115 -4v-604q-54 -10 -137 -10t-137 10z" />
<glyph unicode="L" horiz-adv-x="1058" d="M168 160v1237l14 14h103q82 0 120.5 -42t38.5 -134v-1010q88 8 187 8h381q0 -60 -8 -104q-10 -65 -57 -99t-122 -34h-497q-73 0 -116.5 44t-43.5 120z" />
<glyph unicode="M" horiz-adv-x="1681" d="M131 4l109 1393q83 14 184 14q94 0 174 -14l158 -568q66 -270 78 -350h14q12 80 78 350l155 568q85 14 174 14q102 0 187 -14l108 -1393q-55 -14 -139 -14q-69 0 -121 8l-39 657q-16 254 -16 445h-14l-240 -891q-68 -10 -141 -10q-72 0 -140 10l-239 891h-15 q-4 -253 -16 -445l-39 -657q-52 -8 -123 -8q-82 0 -137 14z" />
<glyph unicode="N" horiz-adv-x="1409" d="M170 0v1395q60 14 162 14q91 0 162 -10l372 -793l133 -303l7 2q-21 312 -21 561v375q0 92 35 131t117 39h88l14 -14v-1393q-63 -14 -166 -14q-91 0 -162 10l-376 793q-81 180 -123 286l-9 -2q23 -303 23 -557v-520q-56 -10 -125 -10q-77 0 -131 10z" />
<glyph unicode="O" horiz-adv-x="1355" d="M86 700q0 183 51.5 343t167.5 260q73 60 161.5 92t211.5 32q226 0 373 -124q117 -100 168 -259t51 -344t-51 -344.5t-168 -259.5q-72 -60 -160.5 -92.5t-212.5 -32.5q-221 0 -373 125q-116 100 -167.5 260t-51.5 344zM375 700q0 -514 303 -514t303 514q0 512 -303 512 t-303 -512z" />
<glyph unicode="P" horiz-adv-x="1185" d="M170 0v1389l14 12q328 8 449 8q107 0 195 -29.5t153 -87t101 -148.5t36 -208q0 -226 -133 -348.5t-352 -122.5h-189v-465q-54 -10 -137 -10t-137 10zM444 674q136 4 172 4q65 0 110.5 24t68 65t32 82t9.5 87q0 47 -9.5 88t-32 81.5t-68 64.5t-110.5 24q-111 0 -172 2 v-522z" />
<glyph unicode="Q" horiz-adv-x="1355" d="M86 700q0 117 18.5 222t69.5 209.5t131 171.5q140 124 371 124q126 0 214.5 -31.5t158.5 -92.5q79 -67 129.5 -171.5t69 -210t18.5 -223.5q0 -376 -172 -551q-57 -63 -125 -90l49 -34q85 -61 141 -83t117 -22q-3 -92 -54.5 -145.5t-123.5 -53.5q-105 0 -189 70l-221 182 h-8q-230 0 -375 125q-80 68 -131 172.5t-69.5 209.5t-18.5 222zM371 700q0 -512 305 -512t305 512t-305 512t-305 -512z" />
<glyph unicode="R" horiz-adv-x="1245" d="M170 0v1389l14 12q328 8 467 8q221 0 351.5 -110t130.5 -322q0 -138 -74 -237.5t-182 -137.5q102 -37 151 -180l76 -207q35 -98 96 -149q-26 -37 -77 -59.5t-105 -22.5q-70 0 -106 37t-68 124l-86 244q-27 72 -68 110t-123 38h-125v-537q-56 -10 -137 -10t-135 10z M442 750q108 6 189 6q219 0 219 221t-219 221q-126 0 -189 2v-450z" />
<glyph unicode="S" horiz-adv-x="1138" d="M45 123q6 58 37.5 116t73.5 93q95 -60 203.5 -97.5t209.5 -37.5t156 45.5t57 115.5q0 119 -157 187l-242 102q-137 60 -212 148t-75 219q0 181 137 297t345 116q126 0 246.5 -32.5t211.5 -79.5q-3 -58 -29 -114.5t-67 -94.5q-86 42 -184.5 70t-175.5 28q-95 0 -149 -45 t-54 -110q0 -51 35.5 -87.5t109.5 -68.5l242 -102q144 -62 225.5 -162.5t81.5 -231.5q0 -191 -134 -308.5t-386 -117.5q-127 0 -262.5 40.5t-243.5 111.5z" />
<glyph unicode="T" horiz-adv-x="1026" d="M16 1284q0 59 11 115h979q14 -51 14 -107q0 -66 -35.5 -94.5t-112.5 -28.5h-96q-15 0 -61.5 1t-61.5 1h-2q0 -29 1 -76.5t1 -74.5v-1020q-59 -10 -139 -10q-78 0 -137 10v1020q0 27 1 74.5t1 76.5h-2q-15 0 -62 -1t-61 -1h-227q-11 56 -11 115z" />
<glyph unicode="U" horiz-adv-x="1374" d="M152 504v893l12 14h102q82 0 121 -42t39 -134v-733q0 -312 262 -312q260 0 260 312v897q54 10 135 10q86 0 140 -10v-895q0 -255 -141.5 -394t-395.5 -139q-252 0 -393 139t-141 394z" />
<glyph unicode="V" horiz-adv-x="1210" d="M29 1374q91 41 168 41q60 0 94 -31.5t53 -103.5l184 -659q40 -144 84 -363q5 -22 19 -22l297 1163q39 10 121 10q69 0 125 -18l12 -17l-395 -1374q-83 -10 -218 -10q-77 0 -120.5 25t-65.5 102z" />
<glyph unicode="W" horiz-adv-x="1798" d="M45 1382q74 33 148 33q71 0 104.5 -32t46.5 -117l107 -611q46 -274 59 -401q3 -18 6 -21.5t14 -3.5l195 1141q77 14 178 14q105 0 176 -14l178 -1116q3 -17 7.5 -21t13.5 -4q21 173 68 430l135 740q51 10 125 10t129 -18l14 -17l-283 -1372q-94 -12 -237 -12 q-73 0 -115 25t-53 102l-84 493q-48 284 -70 490h-16q-26 -196 -78 -490l-108 -608q-99 -12 -232 -12q-77 0 -119.5 24.5t-58.5 102.5z" />
<glyph unicode="X" horiz-adv-x="1232" d="M27 29l430 698l-389 629q86 61 180 61q56 0 95 -24t77 -84l215 -348l264 438q45 10 115 10q76 0 143 -23l6 -16l-389 -635l432 -692q-86 -61 -180 -61q-56 0 -96.5 24.5t-79.5 85.5l-254 408l-299 -500q-48 -10 -117 -10q-77 0 -145 22z" />
<glyph unicode="Y" horiz-adv-x="1071" d="M6 1366q84 49 170 49q56 0 88.5 -26.5t57.5 -88.5l129 -315q51 -131 88 -274h12q35 128 96 282l162 406q46 10 113 10q76 0 135 -18l10 -17l-393 -938v-436q-54 -10 -137 -10q-84 0 -138 10v444z" />
<glyph unicode="Z" horiz-adv-x="1169" d="M86 168q0 55 35 108l485 699q78 109 164 207l-6 6q-139 -17 -318 -17h-311q-10 41 -10 93q0 64 18 135h877q39 -134 39 -172q0 -55 -33 -101l-483 -696q-84 -115 -162 -205l6 -6q176 12 279 12h161q145 0 236 43q20 -58 20 -127q0 -72 -48.5 -109.5t-135.5 -37.5h-780 q-33 138 -33 168z" />
<glyph unicode="[" horiz-adv-x="757" d="M203 -307v1976l16 14l465 -16q8 -27 8 -76q0 -64 -20 -110l-207 -6v-1588l207 -6q20 -46 20 -110q0 -49 -8 -76l-465 -17z" />
<glyph unicode="\" horiz-adv-x="894" d="M12 1479q96 74 230 88l645 -1717q-93 -72 -230 -86z" />
<glyph unicode="]" horiz-adv-x="757" d="M66 -229q0 53 20 110l207 6v1588l-207 6q-20 57 -20 110q0 51 10 76l463 16l16 -14v-1976l-16 -15l-463 17q-10 25 -10 76z" />
<glyph unicode="^" d="M74 627l325 700q46 12 143 12t144 -12l326 -700q-47 -12 -126.5 -12.5t-131.5 12.5l-131 299q-14 33 -72 196h-16q-40 -112 -72 -196l-131 -299q-52 -13 -131.5 -12.5t-126.5 12.5z" />
<glyph unicode="_" horiz-adv-x="1122" d="M-12 -240q0 59 10 103h1126q11 -48 11 -103t-11 -100h-1126q-10 41 -10 100z" />
<glyph unicode="`" horiz-adv-x="815" d="M119 1382q17 52 67.5 99t104.5 65l305 -336q-13 -36 -45 -65.5t-68 -40.5z" />
<glyph unicode="a" horiz-adv-x="1044" d="M74 279q0 87 32 154.5t87.5 108.5t126 62t153.5 21q101 0 172 -7v56q0 155 -151 155q-109 0 -312 -71q-28 31 -46 83.5t-23 106.5q96 40 221.5 66t226.5 26q73 0 134.5 -20t110.5 -60.5t77 -108.5t28 -157v-420q0 -106 58 -151q-9 -37 -35.5 -78t-54.5 -61 q-133 14 -195 116q-133 -129 -303 -129q-75 0 -135 27t-96.5 72t-56 98.5t-19.5 110.5zM338 295q0 -53 30.5 -87t84.5 -34q102 0 192 90v178q-89 7 -147 7q-78 0 -119 -41t-41 -113z" />
<glyph unicode="b" horiz-adv-x="1087" d="M141 51v1442l13 14h100q81 0 114 -38t33 -128v-391q116 86 254 86q173 0 266 -141t93 -377q0 -250 -134 -392t-352 -142q-214 0 -387 67zM401 195q70 -17 129 -17q100 0 154.5 88t54.5 252q0 299 -157 299h-7q-42 0 -87 -22q-49 -24 -87 -68v-532z" />
<glyph unicode="c" horiz-adv-x="968" d="M76 504q0 113 25 205t67.5 153.5t100 103t120.5 60t131 18.5q174 0 279.5 -94.5t105.5 -228.5q0 -67 -35.5 -102t-97.5 -35q-67 0 -108 10v17q0 48 -5 84q-6 42 -21.5 77.5t-46.5 53.5t-77 18q-84 0 -124 -83t-40 -257q0 -169 51 -244.5t152 -75.5q106 0 238 95 q32 -20 63.5 -66.5t40.5 -87.5q-70 -70 -172.5 -112t-210.5 -42q-213 0 -324.5 147t-111.5 386z" />
<glyph unicode="d" horiz-adv-x="1093" d="M78 496q0 130 33 234.5t89 170.5t127.5 100.5t151.5 34.5q101 0 209 -55v512l14 14h103q81 0 113 -38t32 -128v-1048q0 -124 58 -170q-7 -36 -33.5 -77t-54.5 -62q-134 12 -193 120q-55 -61 -129.5 -97t-159.5 -36q-176 0 -268 142.5t-92 382.5zM350 496q0 -154 43 -230 t111 -76q46 0 95 25t89 78v479q-93 59 -166 59q-81 0 -126.5 -87t-45.5 -248z" />
<glyph unicode="e" horiz-adv-x="1019" d="M76 504q0 117 26.5 214t79.5 170.5t138.5 114.5t197.5 41q196 0 307 -122t111 -312q0 -97 -23 -188h-565q7 -116 53.5 -179t155.5 -63q123 0 277 70q29 -29 48.5 -74t26.5 -88q-76 -55 -180.5 -86t-212.5 -31q-100 0 -177.5 29.5t-126.5 78.5t-80 119.5t-43.5 144.5 t-12.5 161zM346 610h340v25q0 97 -41 157t-127 60q-160 0 -172 -242z" />
<glyph unicode="f" horiz-adv-x="708" d="M6 924q0 42 10 94l164 -2q-12 106 -12 160q0 147 92.5 243.5t245.5 96.5q142 0 289 -54q0 -48 -16.5 -99t-43.5 -79q-114 29 -168 29q-68 0 -105.5 -40t-37.5 -116q0 -69 12 -143l279 4q10 -52 10 -94q0 -47 -10 -99l-260 4v-829q-68 -10 -133 -10q-61 0 -129 10v827 l-177 -2q-10 52 -10 99z" />
<glyph unicode="g" horiz-adv-x="1089" d="M78 506q0 130 33 234.5t89.5 169.5t127.5 99.5t151 34.5q162 0 273 -100q61 77 170 88q29 -21 55.5 -62t32.5 -75q-58 -49 -58 -170v-571q0 -188 -24.5 -292.5t-75.5 -170.5q-56 -69 -150.5 -106.5t-212.5 -37.5q-199 0 -370 70q0 48 19 106t48 91q134 -64 277 -64 q125 0 177 64.5t52 179.5v80q-118 -92 -252 -92q-178 0 -270 141.5t-92 382.5zM350 506q0 -155 42 -231t110 -76q106 0 190 94v450v15q-88 82 -168 82q-84 0 -129 -86t-45 -248z" />
<glyph unicode="h" horiz-adv-x="1112" d="M141 0v1493l13 14h104q79 0 111 -38t32 -128v-432q142 125 299 125q136 0 207.5 -96.5t71.5 -253.5v-446q0 -131 43 -195q-67 -57 -168 -57q-77 0 -110 40.5t-33 125.5v477q0 89 -23 127.5t-84 38.5q-47 0 -102.5 -26t-100.5 -73v-696q-62 -10 -131 -10q-64 0 -129 10z " />
<glyph unicode="i" horiz-adv-x="583" d="M47 918q0 50 12 96q95 10 156 10h35q91 0 143.5 -57.5t52.5 -157.5v-809q-62 -10 -133 -10q-70 0 -135 10v713q0 56 -21 84t-71 28h-27q-12 46 -12 93zM117 1305q0 59 20 106q52 27 134 27q87 0 133 -27q20 -47 20 -106q0 -60 -20 -107q-20 -12 -59 -20.5t-74 -8.5 t-74.5 8.5t-59.5 20.5q-20 47 -20 107z" />
<glyph unicode="j" horiz-adv-x="598" d="M39 -287q90 41 124 93.5t34 158.5v748q0 112 -95 112h-45q-12 46 -12 93q0 50 12 96q105 10 174 10h37q89 0 140 -57.5t51 -157.5v-760q0 -94 -6.5 -156.5t-27 -122.5t-59 -99t-100.5 -70.5t-153 -51.5q-28 25 -49.5 71.5t-24.5 92.5zM127 1305q0 59 20 106q52 27 134 27 q87 0 133 -27q20 -47 20 -106q0 -60 -20 -107q-20 -12 -59 -20.5t-74 -8.5t-74.5 8.5t-59.5 20.5q-20 47 -20 107z" />
<glyph unicode="k" horiz-adv-x="1050" d="M141 0v1493l13 14h104q79 0 111 -38t32 -128v-698l52 2q35 0 53 33l141 244q29 53 65.5 77.5t94.5 24.5q49 0 147 -4l13 -16l-191 -328q-34 -64 -86 -101q124 -41 178 -180l60 -159q15 -44 25.5 -69t29.5 -53.5t43 -45.5q-32 -36 -80.5 -59t-99.5 -23q-61 0 -92.5 29.5 t-57.5 101.5l-69 188q-27 71 -58.5 95t-89.5 24q-28 0 -78 -4v-420q-62 -10 -131 -10q-67 0 -129 10z" />
<glyph unicode="l" horiz-adv-x="622" d="M137 240v1253l15 14h102q81 0 113 -38t32 -128v-1050q0 -94 86 -94h64q22 -58 22 -129q0 -36 -6 -60q-124 -18 -198 -18q-119 0 -174.5 61t-55.5 189z" />
<glyph unicode="m" horiz-adv-x="1644" d="M141 0v1014l13 14h100q122 0 147 -127q144 133 285 133q168 0 238 -147q158 147 319 147q130 0 199 -89t69 -232v-475q0 -131 43 -195q-71 -57 -168 -57q-77 0 -110 40.5t-33 125.5v479q0 164 -108 164q-81 0 -177 -99v-696q-62 -10 -133 -10t-133 10v629q0 166 -106 166 q-87 -3 -178 -97v-698q-62 -10 -134 -10q-71 0 -133 10z" />
<glyph unicode="n" horiz-adv-x="1118" d="M141 0v1014l13 14h102q118 0 143 -123q150 129 308 129q136 0 207 -95.5t71 -254.5v-446q0 -131 43 -195q-67 -57 -168 -57q-77 0 -110 40.5t-33 125.5v477q0 89 -23 127.5t-84 38.5q-47 0 -102 -26t-100 -73v-696q-62 -10 -134 -10q-71 0 -133 10z" />
<glyph unicode="o" horiz-adv-x="1067" d="M76 508q0 137 33.5 240.5t111.5 181.5q120 114 311 114q194 0 314 -114q78 -78 111.5 -181.5t33.5 -240.5t-33 -239t-112 -181q-120 -117 -314 -117q-191 0 -311 117q-79 79 -112 181t-33 239zM350 508q0 -73 8 -128.5t27.5 -104.5t57 -75t92.5 -26q44 0 76.5 18t52.5 48 t32 74t16.5 90.5t4.5 103.5q0 58 -4.5 104.5t-16.5 91t-32 74.5t-52.5 48t-76.5 18q-55 0 -92.5 -26t-57 -75.5t-27.5 -105.5t-8 -129z" />
<glyph unicode="p" horiz-adv-x="1093" d="M141 -428v1442l13 14h75q109 0 152 -100q116 116 274 116q176 0 268.5 -142t92.5 -382q0 -130 -33 -234.5t-89 -169.5t-128 -99.5t-152 -34.5q-109 0 -211 55v-313q0 -90 -33 -128t-112 -38h-104zM403 246q94 -60 168 -60q81 0 126.5 87t45.5 249q0 153 -42.5 229 t-110.5 76q-47 0 -97 -25.5t-90 -80.5v-475z" />
<glyph unicode="q" horiz-adv-x="1093" d="M78 506q0 130 33 234.5t89.5 169.5t127.5 99.5t151 34.5q161 0 273 -98q59 74 168 86q28 -20 54.5 -61t35.5 -76q-58 -47 -58 -170v-1153l-14 -14h-102q-81 0 -113.5 38t-32.5 128v348q-115 -90 -250 -90q-178 0 -270 141.5t-92 382.5zM350 506q0 -154 43 -230.5 t109 -76.5q105 0 188 92v452v17q-86 80 -166 80q-82 0 -128 -86.5t-46 -247.5z" />
<glyph unicode="r" horiz-adv-x="784" d="M82 893q8 36 33.5 77.5t52.5 61.5q164 -20 227 -184q79 182 260 182q68 0 123 -14q0 -56 -17 -127.5t-48 -122.5q-31 10 -95 14q-118 0 -192 -127v-653q-62 -10 -135 -10q-68 0 -133 10v682q0 78 -23 131t-53 80z" />
<glyph unicode="s" horiz-adv-x="901" d="M51 72q1 44 25 98.5t55 85.5q165 -88 285 -88q70 0 109.5 27t41.5 71q0 75 -110 115l-115 43q-120 44 -189 116t-69 185q0 146 105 232.5t276 86.5q85 0 187 -23t169 -56v-8q0 -45 -21 -97q-23 -58 -55 -84q-160 72 -280 72q-53 0 -84 -25.5t-31 -66.5q0 -33 24.5 -56.5 t78.5 -44.5l125 -45q266 -98 266 -319q0 -147 -111 -233.5t-293 -86.5q-110 0 -211.5 28.5t-177.5 72.5z" />
<glyph unicode="t" horiz-adv-x="743" d="M14 924q0 49 11 94l155 -2v147q0 90 32.5 127t113.5 37h102l14 -12v-301l248 4q12 -50 12 -94q0 -50 -12 -99l-248 4v-538q0 -94 88 -94h127q21 -65 21 -129q0 -44 -6 -60q-126 -18 -246 -18q-246 0 -246 250v587l-155 -2q-11 45 -11 99z" />
<glyph unicode="u" horiz-adv-x="1122" d="M90 975q67 57 168 57q77 0 110 -41.5t33 -126.5v-477q0 -89 23 -126.5t84 -37.5q46 0 102 24.5t101 69.5v699q46 10 133 10q86 0 135 -10v-727q0 -122 57 -170q-9 -36 -35 -75.5t-55 -59.5q-150 15 -207 145q-158 -147 -325 -147q-137 0 -209 96.5t-72 253.5v448 q0 129 -43 195z" />
<glyph unicode="v" horiz-adv-x="958" d="M0 995q80 39 152 39q62 0 98 -28.5t51 -92.5l115 -415q21 -71 61 -273q2 -8 5 -11.5t6 -4t10 -0.5l209 807q41 10 98 10q78 0 137 -20l8 -13q-203 -705 -299 -993q-89 -12 -198 -12q-81 0 -122.5 27.5t-66.5 109.5z" />
<glyph unicode="w" horiz-adv-x="1515" d="M27 1001q79 33 151 33q58 0 87 -27t40 -85l78 -377q41 -194 59 -330q3 -10 6 -13t11 -3l141 811q64 12 158 12q98 0 157 -12l142 -795q1 -11 4 -13.5t12 -2.5q32 189 64 346l102 471q43 12 107 12q94 0 139 -22l8 -17l-246 -989q-66 -10 -198 -10q-84 0 -123 24.5 t-52 104.5l-45 252q-45 260 -65 405h-12q-7 -53 -68 -403l-70 -373q-71 -10 -206 -10q-77 0 -117.5 27t-59.5 106z" />
<glyph unicode="x" horiz-adv-x="964" d="M16 27l318 493l-293 455q85 61 182 61q48 0 77.5 -20t57.5 -64l142 -215l170 279q43 12 106 12t133 -18l6 -21l-288 -448l327 -498q-89 -59 -184 -59q-48 0 -80 19t-59 60l-168 256l-191 -319q-41 -12 -108 -12q-85 0 -139 22z" />
<glyph unicode="y" horiz-adv-x="989" d="M6 -410q-1 9 -1 18q0 39 13 85q17 57 43 88q94 -29 170 -29q85 0 138 53.5t84 155.5l8 27q-78 2 -123.5 28.5t-63.5 89.5l-254 889q82 39 164 39q52 0 83.5 -25.5t49.5 -90.5l117 -433q18 -64 60 -284q2 -15 18 -15l201 830q47 12 108 12q83 0 142 -20l10 -17l-262 -962 q-27 -95 -53.5 -163t-66 -131t-88.5 -101t-118 -60.5t-156 -22.5q-51 0 -116 12t-107 27z" />
<glyph unicode="z" horiz-adv-x="917" d="M61 137q0 49 39 101l287 387q29 40 164 196l-6 8q-119 -14 -264 -14h-185q-10 45 -10 84q0 58 16 117h701q35 -103 35 -150q0 -45 -29 -84l-289 -391q-89 -116 -158 -190l7 -11q87 11 176 11h84q140 0 205 32q26 -65 26 -112q0 -59 -35.5 -90t-117.5 -31h-613 q-33 90 -33 137z" />
<glyph unicode="{" horiz-adv-x="763" d="M76 669q0 55 14 87q73 18 121.5 82t48.5 149v338q0 148 85 237.5t226 112.5l121 19q27 -29 42.5 -85.5t6.5 -90.5l-112 -37q-45 -14 -72 -55t-27 -103v-332q0 -102 -48.5 -190t-127.5 -123v-16q79 -36 127.5 -125t48.5 -191v-332q0 -62 27 -102.5t72 -54.5l112 -37 q9 -34 -6.5 -91t-42.5 -87l-121 20q-142 23 -226.5 112t-84.5 238v338q0 84 -48.5 149.5t-121.5 82.5q-14 32 -14 87z" />
<glyph unicode="|" horiz-adv-x="538" d="M143 -289v1874q49 10 127 10q74 0 123 -10v-1874q-47 -12 -123 -12q-80 0 -127 12z" />
<glyph unicode="}" horiz-adv-x="763" d="M23 -180l112 37q45 14 73 54.5t28 102.5v332q0 103 48 191.5t128 124.5v16q-80 35 -128 122.5t-48 190.5v332q0 62 -28 103t-73 55l-112 37q-8 35 7 91.5t42 84.5l121 -19q141 -23 227 -112.5t86 -237.5v-338q0 -85 48 -149.5t122 -81.5q12 -32 12 -87t-12 -87 q-74 -17 -122 -82.5t-48 -149.5v-338q0 -149 -85.5 -238t-227.5 -112l-121 -20q-27 30 -42 86.5t-7 91.5z" />
<glyph unicode="~" horiz-adv-x="1249" d="M72 547l34 59q113 195 308 195q85 0 178 -41l166 -76q63 -25 98 -25q65 0 117 62l45 49q45 -3 93 -31.5t67 -70.5l-35 -60q-112 -194 -307 -194q-86 0 -179 41l-165 75q-58 23 -99 23q-67 0 -117 -59l-45 -50q-44 3 -92 32t-67 71z" />
<glyph unicode="&#xa1;" horiz-adv-x="610" d="M147 -381l62 983q42 12 100 12q65 0 105 -12l35 -928q-45 -33 -121.5 -53t-163.5 -20zM158 899q0 76 20 109q51 28 133 28q84 0 135 -28q21 -40 21 -109q0 -26 -6 -60t-15 -48q-51 -31 -135 -31q-82 0 -133 31q-20 29 -20 108z" />
<glyph unicode="&#xa2;" horiz-adv-x="952" d="M68 664q0 118 27 212.5t74.5 157.5t106.5 102t130 56v203q31 10 98 10q66 0 100 -10v-199q132 -25 209.5 -112t77.5 -193q0 -150 -143 -150q-49 0 -99 13q4 247 -149 247q-81 0 -118.5 -82.5t-37.5 -254.5q0 -320 203 -320q106 0 231 94q33 -23 64.5 -65.5t40.5 -81.5 q-49 -57 -124.5 -98t-160.5 -58v-201q-27 -6 -100 -6q-74 0 -99 6v203q-92 18 -159 70t-103 127t-52.5 156.5t-16.5 173.5z" />
<glyph unicode="&#xa3;" horiz-adv-x="1093" d="M92 631q0 58 14 98q18 0 56.5 -1t58.5 -1q-4 10 -24.5 58t-27.5 68t-15.5 58t-8.5 72q0 53 16 105t50.5 100.5t84 85.5t122 59.5t157.5 22.5q129 0 240.5 -47.5t181.5 -112.5q-8 -52 -47.5 -100.5t-91.5 -65.5q-60 47 -130.5 76t-133.5 29q-81 0 -132.5 -45.5 t-51.5 -126.5q0 -24 3 -47t11 -50t13.5 -43t18.5 -50.5t17 -45.5q50 0 172 1t189 1q14 -38 14 -96t-14 -98q-221 0 -332 2q-4 -87 -37.5 -172t-81.5 -150l6 -6q184 12 328 12h311q0 -57 -4 -90q-24 -133 -180 -133h-709q-31 139 -31 168q0 58 33 102l31 45q83 121 92 222 h-154q-14 38 -14 96z" />
<glyph unicode="&#xa4;" horiz-adv-x="1193" d="M55 283l144 157q-66 104 -66 244q0 138 66 242l-144 157q44 80 140 140l161 -148q107 55 238 55q130 0 237 -55l168 152q86 -54 140 -140l-146 -163q64 -106 64 -240q0 -136 -68 -244l146 -159q-49 -84 -140 -140l-166 150q-103 -53 -235 -53q-131 0 -234 53l-165 -148 q-40 23 -77.5 61t-62.5 79zM399 684q0 -105 50 -176.5t145 -71.5q98 0 148.5 70t50.5 178t-50.5 178t-148.5 70q-95 0 -145 -70t-50 -178z" />
<glyph unicode="&#xa5;" horiz-adv-x="1091" d="M41 1300q94 48 170 48q51 0 78 -22t49 -73l121 -292q24 -58 88 -259h10q51 167 96 263l156 364q44 12 106 12q74 0 132 -16l10 -14l-226 -492h146q12 -56 12 -88q0 -35 -12 -84h-225l-68 -147h293q12 -55 12 -88q0 -34 -12 -84h-303v-328q-56 -10 -131 -10q-79 0 -133 10 v328h-301q-13 43 -13 84q0 40 13 88h288l-65 147h-223q-13 43 -13 84q0 40 13 88h147z" />
<glyph unicode="&#xa6;" horiz-adv-x="526" d="M139 -289v793q49 10 125 10q72 0 123 -10v-793q-49 -12 -123 -12q-78 0 -125 12zM139 793v792q49 10 125 10q72 0 123 -10v-792q-53 -13 -123 -13q-74 0 -125 13z" />
<glyph unicode="&#xa7;" horiz-adv-x="1009" d="M59 567q0 89 56.5 167.5t150.5 135.5q-135 94 -135 242q0 135 108 225t277 90q85 0 175 -20.5t157 -52.5q3 -48 -20 -104.5t-56 -82.5q-147 62 -248 62q-56 0 -91.5 -26t-35.5 -68q0 -36 26 -61t79 -46l116 -47q76 -31 129.5 -61t103.5 -72t75.5 -96.5t25.5 -120.5 q0 -90 -56.5 -168t-152.5 -135q140 -95 140 -246q0 -134 -110.5 -223.5t-289.5 -89.5q-93 0 -189 23.5t-163 62.5q-3 47 20.5 103t57.5 81q157 -72 274 -72q60 0 96.5 25.5t36.5 68.5q0 68 -104 109l-119 49q-60 25 -104 47t-90 54t-74.5 66.5t-47 81t-18.5 99.5zM317 614 q0 -60 51.5 -101t153.5 -81l47 -18q56 30 90.5 73.5t34.5 96.5q0 59 -52.5 101t-149.5 81l-48 18q-57 -29 -92 -73.5t-35 -96.5z" />
<glyph unicode="&#xa8;" horiz-adv-x="815" d="M76 1266q0 51 16 92q48 28 117 28t117 -28q16 -41 16 -92q0 -53 -16 -92q-47 -29 -117 -29t-117 29q-16 41 -16 92zM473 1266q0 51 16 92q48 28 117 28t117 -28q16 -41 16 -92q0 -53 -16 -92q-47 -29 -117 -29t-117 29q-16 41 -16 92z" />
<glyph unicode="&#xa9;" horiz-adv-x="1628" d="M74 698q0 154 57 292t155 237t235.5 157t291.5 58t292 -58t237 -157t156.5 -237t57.5 -292q0 -206 -98 -376t-268.5 -267.5t-376.5 -97.5t-375.5 97.5t-266.5 267.5t-97 376zM283 698q0 -154 67 -281.5t189 -202.5t274 -75t275.5 75t191.5 203t68 281t-68 281.5 t-191.5 204.5t-275.5 76t-274 -76t-189 -204t-67 -282zM461 700q0 104 31.5 184t83.5 126t114 69t129 23q135 0 220 -72t85 -170q0 -110 -114 -110q-50 0 -80 12q3 76 -25 129t-94 53t-100.5 -62t-34.5 -182q0 -116 45 -175.5t129 -59.5q78 0 182 74q27 -17 50.5 -52.5 t29.5 -68.5q-50 -51 -134 -85t-163 -34q-93 0 -163.5 32.5t-111 89.5t-60 127t-19.5 152z" />
<glyph unicode="&#xaa;" horiz-adv-x="903" d="M80 821q0 136 89 205.5t232 69.5q22 0 71.5 -2.5t62.5 -3.5v53q0 56 -32 83t-79 27q-100 0 -248 -51q-54 57 -57 150q78 33 177.5 54t182.5 21q124 0 205.5 -69t81.5 -209v-320q0 -94 53 -127q-5 -32 -30 -66.5t-56 -49.5q-105 6 -160 90q-116 -101 -241 -101 q-116 0 -184 73t-68 173zM299 836q0 -38 26.5 -65.5t67.5 -27.5q72 0 142 64v22v115q-82 4 -117 4q-57 0 -88 -29.5t-31 -82.5z" />
<glyph unicode="&#xab;" horiz-adv-x="1206" d="M56 522q0 48 14 80l405 383q43 -12 88 -54.5t58 -84.5l-269 -320l277 -325q-13 -42 -59 -84t-91 -54l-409 379q-14 32 -14 80zM564 522q0 48 14 80l405 383q43 -12 87.5 -54.5t57.5 -84.5l-268 -320l277 -325q-13 -42 -59 -84t-91 -54l-409 379q-14 32 -14 80z" />
<glyph unicode="&#xac;" d="M90 618q0 65 10 111h861l14 -14v-469q-44 -10 -115 -10q-65 0 -121 10v151q0 19 1 57t1 56q-21 0 -60 -1t-58 -1h-523q-10 44 -10 110z" />
<glyph unicode="&#xad;" horiz-adv-x="745" d="M88 549q0 66 12 110h543q12 -44 12 -110q0 -67 -12 -111h-543q-12 44 -12 111z" />
<glyph unicode="&#xae;" horiz-adv-x="1222" d="M63 973q0 113 42.5 215t115.5 176t174.5 117t214.5 43q114 0 216 -43t175.5 -117t116.5 -176t43 -215q0 -151 -73 -277.5t-199.5 -199t-278.5 -72.5q-113 0 -214.5 43t-174.5 116t-115.5 175t-42.5 215zM225 973q0 -167 110.5 -283.5t274.5 -116.5q165 0 276 116.5 t111 283.5t-111.5 284t-275.5 117t-274.5 -117t-110.5 -284zM403 727v506l7 4q26 1 71 2.5t80.5 2.5t63.5 1q103 0 152.5 -42t49.5 -109q0 -57 -29.5 -92.5t-72.5 -45.5q40 -18 68 -77l24 -50q21 -43 47 -59q-15 -22 -43 -36.5t-57 -14.5t-47.5 14t-36.5 47l-47 92 q-10 20 -22 28.5t-36 8.5h-28v-180q-26 -9 -70.5 -9t-73.5 9zM547 1016q23 2 57 2q74 0 74 59q0 25 -17 41.5t-49 16.5h-65v-119z" />
<glyph unicode="&#xaf;" horiz-adv-x="815" d="M94 1274q0 56 12 100h605q10 -46 10 -98q0 -58 -10 -102h-605q-12 42 -12 100z" />
<glyph unicode="&#xb0;" horiz-adv-x="694" d="M33 1063q0 138 89 226.5t226 88.5q136 0 225 -89t89 -226t-89 -226t-225 -89q-137 0 -226 88.5t-89 226.5zM225 1063q0 -65 33 -104t90 -39q54 0 86.5 39t32.5 104t-32.5 104t-86.5 39q-57 0 -90 -39t-33 -104z" />
<glyph unicode="&#xb1;" d="M123 104q0 56 10 105h819q11 -54 11 -105q0 -50 -11 -104h-819q-10 49 -10 104zM123 729q0 51 10 100h180q19 0 58 -1t59 -1q0 20 -1 61.5t-1 63.5v164q49 10 117 10q66 0 112 -10v-164q0 -22 -1 -63.5t-1 -61.5q18 0 57 1t60 1h180q11 -54 11 -100q0 -48 -11 -102h-180 q-21 0 -60 1t-57 1q0 -19 1 -61t1 -62v-166q-46 -10 -112 -10q-68 0 -117 10v166q0 20 1 62t1 61q-20 0 -59 -1t-58 -1h-180q-10 49 -10 102z" />
<glyph unicode="&#xb2;" horiz-adv-x="860" d="M94 807q0 106 146 225l168 139q38 32 54.5 61t16.5 64q0 39 -25.5 64.5t-64.5 25.5q-40 0 -70 -29.5t-45 -74.5q-42 2 -96 25t-72 51q24 98 106 163.5t198 65.5q137 0 222 -78.5t85 -197.5q0 -92 -42 -159t-126 -132l-115 -88q-13 -10 -38.5 -28.5t-40.5 -30.5t-25 -23 q106 20 200 20h211q0 -42 -4 -96q-18 -104 -131 -104h-438q-2 2 -15 18.5t-17.5 22.5t-15 21.5t-14.5 25t-8 23.5t-4 26z" />
<glyph unicode="&#xb3;" horiz-adv-x="860" d="M90 758q7 40 32 80t58 69q95 -63 178 -63q64 0 102 31.5t38 89.5q0 50 -32 84t-89 34q-30 0 -70 -14q-28 10 -55 46.5t-35 72.5l148 137q42 39 88 66l-7 8q-60 -13 -161 -13h-150q-12 39 -12 89q0 61 18 98h512q45 -83 45 -125q0 -58 -47 -98l-106 -95q-11 -11 -56 -38 q104 -6 173 -79t69 -182q0 -91 -49.5 -159t-125 -100.5t-163.5 -32.5q-183 0 -303 94z" />
<glyph unicode="&#xb4;" horiz-adv-x="815" d="M231 1210l308 336q54 -18 104 -64.5t68 -99.5l-367 -278q-35 11 -67.5 40.5t-45.5 65.5z" />
<glyph unicode="&#xb6;" horiz-adv-x="1458" d="M70 956q0 117 36 205t102.5 141.5t153.5 80t195 26.5q70 0 274 -8l15 -15v-1208q0 -137 -19.5 -225.5t-78.5 -153.5q-112 -123 -336 -123q-77 0 -155.5 15.5t-129.5 36.5q-2 42 14.5 101t44.5 95q123 -43 199 -43q97 0 147 58q43 49 43 188v371h-30q-137 0 -242.5 49.5 t-169 154.5t-63.5 254zM975 -268v1652l12 15h424q13 -38 13 -116t-13 -116h-68q-17 0 -49 1t-47 1v-1437q-59 -13 -135 -13q-84 0 -137 13z" />
<glyph unicode="&#xb7;" horiz-adv-x="651" d="M170 586q0 72 18 112q60 33 138 33q74 0 135 -33q18 -46 18 -112q0 -68 -18 -115q-54 -33 -135 -33q-84 0 -138 33q-18 40 -18 115z" />
<glyph unicode="&#xb8;" horiz-adv-x="815" d="M219 -422q3 74 49 123q44 -27 99 -27q40 0 61 19t21 49t-21 50t-55 20q-18 0 -45 -9q-32 16 -41 41q17 75 53 156h149q-20 -37 -32 -70q90 -6 144 -56t54 -124q0 -96 -74.5 -156.5t-191.5 -60.5q-103 0 -170 45z" />
<glyph unicode="&#xb9;" horiz-adv-x="860" d="M94 1278q111 67 173.5 132.5t105.5 160.5q49 10 106 10q51 0 105 -10v-703h168q10 -39 10 -98q0 -57 -10 -96h-594q-8 44 -8 96q0 57 8 98h207v246q0 36 8 154q-54 -70 -178 -127q-37 18 -65 57.5t-36 79.5z" />
<glyph unicode="&#xba;" horiz-adv-x="890" d="M78 1001q0 215 121 336q93 90 245 90q155 0 248 -90q121 -121 121 -336q0 -216 -121 -337q-92 -89 -248 -89q-153 0 -245 89q-121 121 -121 337zM303 1001q0 -253 143 -253q74 0 108 68.5t34 184.5t-34 185t-108 69q-143 0 -143 -254z" />
<glyph unicode="&#xbb;" horiz-adv-x="1206" d="M68 848q13 42 59 83.5t90 53.5l412 -381q12 -31 12 -78.5t-12 -79.5l-406 -383q-44 12 -87.5 54.5t-57.5 85.5l266 319zM575 848q13 42 59.5 83.5t90.5 53.5l412 -381q12 -31 12 -78.5t-12 -79.5l-406 -383q-44 12 -87.5 54.5t-57.5 85.5l266 319z" />
<glyph unicode="&#xbc;" horiz-adv-x="2052" d="M61 1106q111 67 173.5 132.5t105.5 160.5q49 10 106 10q51 0 105 -10v-703h168q10 -39 10 -98q0 -57 -10 -96h-594q-8 44 -8 96q0 57 8 98h207v246q0 36 8 154q-54 -70 -178 -127q-37 18 -65 57.5t-36 79.5zM580 0l774 1399q55 13 139.5 12t118.5 -12l-772 -1399 q-55 -13 -139.5 -12t-120.5 12zM1266 295q0 29 30 98l236 522q52 6 116 -7.5t97 -39.5l-129 -282q-73 -171 -131 -242l4 -4q21 2 49 3.5t59.5 2.5t42.5 2v31v55q0 76 41.5 119t112.5 43h55l9 -8v-111q0 -19 -1.5 -66t-1.5 -63h115q8 -33 8 -72q0 -58 -16 -114h-43 q-8 0 -31.5 1t-32.5 1v-152q-41 -10 -102 -10q-67 0 -113 10v60q0 17 1 45.5t1 46.5q-18 0 -49 -2t-51 -2h-227q-49 78 -49 135z" />
<glyph unicode="&#xbd;" horiz-adv-x="2052" d="M61 1106q111 67 173.5 132.5t105.5 160.5q49 10 106 10q51 0 105 -10v-703h168q10 -39 10 -98q0 -57 -10 -96h-594q-8 44 -8 96q0 57 8 98h207v246q0 36 8 154q-54 -70 -178 -127q-37 18 -65 57.5t-36 79.5zM553 0l774 1399q55 13 139.5 12t118.5 -12l-772 -1399 q-55 -13 -139.5 -12t-120.5 12zM1313 143q0 108 145 226l168 139q39 33 55.5 61.5t16.5 63.5q0 39 -25.5 64.5t-64.5 25.5q-40 0 -70 -30t-45 -75q-42 2 -96 25t-72 51q24 98 106 164t197 66q137 0 222 -79t85 -198q0 -92 -42 -159t-126 -132l-114 -88q-14 -11 -39 -29 t-40.5 -30t-25.5 -23q111 21 201 21h211q0 -42 -4 -96q-19 -105 -131 -105h-439q-2 3 -13 16.5t-14.5 18.5t-13 18t-13.5 21t-9.5 19.5t-7.5 22t-2 21.5z" />
<glyph unicode="&#xbe;" horiz-adv-x="2052" d="M94 588q7 40 32 80t58 69q95 -63 178 -63q64 0 102 31.5t38 89.5q0 50 -32 84t-89 34q-30 0 -70 -14q-28 10 -55 46.5t-35 72.5l148 137q42 39 88 66l-6 8q-55 -12 -162 -12h-150q-12 39 -12 88q0 61 18 98h512q45 -83 45 -125q0 -58 -47 -98l-106 -95q-13 -13 -55 -38 q104 -6 172.5 -79t68.5 -182q0 -91 -49.5 -159t-125 -100.5t-163.5 -32.5q-183 0 -303 94zM535 0l774 1399q55 13 139.5 12t118.5 -12l-772 -1399q-55 -13 -139.5 -12t-120.5 12zM1239 295q0 27 31 98l235 522q52 6 116 -7.5t97 -39.5l-129 -282q-73 -171 -131 -242l4 -4 q21 2 49.5 3.5t59.5 2.5t43 2v31v55q0 76 41 119t112 43h56l8 -8v-111q0 -19 -1 -66t-1 -63h115q8 -33 8 -72q0 -54 -17 -114h-43q-8 0 -31 1t-32 1v-152q-41 -10 -103 -10q-66 0 -112 10v60q0 17 1 45.5t1 46.5q-18 0 -49 -2t-51 -2h-228q-49 78 -49 135z" />
<glyph unicode="&#xbf;" horiz-adv-x="837" d="M27 -55q0 257 266 401l127 70l18 180q43 14 99 14q58 0 104 -14l14 -305l-22 -27l-107 -51q-105 -52 -162 -109.5t-57 -130.5q0 -72 48 -114.5t134 -42.5q113 0 248 73q38 -30 67 -86t32 -108q-199 -111 -408 -111q-189 0 -295 99t-106 262zM381 899q0 73 22 109 q48 28 134 28q81 0 135 -28q18 -34 18 -109q0 -78 -18 -108q-54 -31 -135 -31q-86 0 -134 31q-10 14 -16 47t-6 61z" />
<glyph unicode="&#xc0;" horiz-adv-x="1280" d="M29 20l456 1379q75 10 160 10q93 0 158 -12l448 -1379q-58 -34 -157 -34q-68 0 -104 30.5t-60 116.5l-58 186q-17 0 -54 -1t-46 -1h-287q-67 0 -100 2l-96 -319q-44 -10 -119 -10q-82 0 -131 18zM352 1679q4 57 38.5 118t72.5 89l436 -264q-15 -93 -78 -131zM453 535 q16 0 49.5 1t42.5 1h176q8 0 39 -1t47 -1l-62 208q-62 206 -110 398h-12q-17 -88 -91 -346z" />
<glyph unicode="&#xc1;" horiz-adv-x="1280" d="M29 20l456 1379q75 10 160 10q93 0 158 -12l448 -1379q-58 -34 -157 -34q-68 0 -104 30.5t-60 116.5l-58 186q-17 0 -54 -1t-46 -1h-287q-67 0 -100 2l-96 -319q-44 -10 -119 -10q-82 0 -131 18zM414 1622l436 264q38 -28 72.5 -89t38.5 -118l-469 -188q-29 16 -51 55.5 t-27 75.5zM453 535q16 0 49.5 1t42.5 1h176q8 0 39 -1t47 -1l-62 208q-62 206 -110 398h-12q-17 -88 -91 -346z" />
<glyph unicode="&#xc2;" horiz-adv-x="1280" d="M29 20l456 1379q75 10 160 10q93 0 158 -12l448 -1379q-58 -34 -157 -34q-68 0 -104 30.5t-60 116.5l-58 186q-17 0 -54 -1t-46 -1h-287q-67 0 -100 2l-96 -319q-44 -10 -119 -10q-82 0 -131 18zM289 1602l239 239q51 11 116 11t112 -11l231 -221q-11 -38 -43.5 -69.5 t-64.5 -43.5l-236 152l-242 -172q-32 12 -67 45.5t-45 69.5zM453 535q16 0 49.5 1t42.5 1h176q8 0 39 -1t47 -1l-62 208q-62 206 -110 398h-12q-17 -88 -91 -346z" />
<glyph unicode="&#xc3;" horiz-adv-x="1280" d="M29 20l456 1379q75 10 160 10q93 0 158 -12l448 -1379q-58 -34 -157 -34q-68 0 -104 30.5t-60 116.5l-58 186q-17 0 -54 -1t-46 -1h-287q-67 0 -100 2l-96 -319q-44 -10 -119 -10q-82 0 -131 18zM254 1624l18 39q35 76 96 121t138 45q59 0 127 -35l104 -49q38 -19 66 -19 q42 0 78 50l20 26q41 0 80.5 -23t54.5 -57l-18 -39q-36 -77 -97 -121t-137 -44q-65 0 -127 34l-104 50q-32 18 -66 18q-43 0 -77 -49l-21 -29q-41 2 -80.5 25t-54.5 57zM453 535q16 0 49.5 1t42.5 1h176q8 0 39 -1t47 -1l-62 208q-62 206 -110 398h-12q-17 -88 -91 -346z " />
<glyph unicode="&#xc4;" horiz-adv-x="1280" d="M29 20l456 1379q75 10 160 10q93 0 158 -12l448 -1379q-58 -34 -157 -34q-68 0 -104 30.5t-60 116.5l-58 186q-17 0 -54 -1t-46 -1h-287q-67 0 -100 2l-96 -319q-44 -10 -119 -10q-82 0 -131 18zM283 1632q0 58 22 92q45 29 111 29q60 0 116 -29q21 -33 21 -92 q0 -63 -21 -96q-56 -29 -116 -29q-66 0 -111 29q-22 34 -22 96zM453 535q16 0 49.5 1t42.5 1h176q8 0 39 -1t47 -1l-62 208q-62 206 -110 398h-12q-17 -88 -91 -346zM733 1632q0 57 25 92q56 29 116 29q62 0 111 -29q23 -36 23 -92q0 -60 -23 -96q-49 -29 -111 -29 q-60 0 -116 29q-25 35 -25 96z" />
<glyph unicode="&#xc5;" horiz-adv-x="1280" d="M29 20l456 1379h7q-56 34 -86.5 88.5t-30.5 118.5q0 105 75.5 176t194.5 71q118 0 193 -71t75 -176q0 -66 -31 -120.5t-87 -86.5q1 0 3.5 -1t4.5 -1l448 -1379q-58 -34 -157 -34q-68 0 -104 30.5t-60 116.5l-58 186q-17 0 -54 -1t-46 -1h-287q-67 0 -100 2l-96 -319 q-44 -10 -119 -10q-82 0 -131 18zM453 535q16 0 49.5 1t42.5 1h176q8 0 39 -1t47 -1l-62 208q-62 206 -110 398h-12q-17 -88 -91 -346zM543 1606q0 -45 28.5 -76t73.5 -31q44 0 72 31t28 76q0 46 -28 77t-72 31q-45 0 -73.5 -31t-28.5 -77z" />
<glyph unicode="&#xc6;" horiz-adv-x="1806" d="M20 20l637 1354q57 25 166 25h852q11 -56 11 -109q0 -56 -23 -123h-455h-135q0 -27 1 -71t1 -70v-211q51 2 133 2h351q16 -47 16 -112q0 -66 -16 -113h-351h-133v-240q0 -22 -1 -63.5t-1 -65.5q86 4 144 4h505q0 -65 -6 -100q-10 -64 -55.5 -97.5t-120.5 -33.5h-575 q-73 0 -114.5 43.5t-41.5 120.5v157q-31 -2 -90 -2h-182q-64 0 -97 2l-143 -317q-39 -10 -129 -10q-94 0 -139 18zM539 532q14 0 40 1.5t33 1.5h105q7 0 41 -1.5t51 -1.5v609h-10q-77 -206 -142 -346z" />
<glyph unicode="&#xc7;" horiz-adv-x="1241" d="M86 694q0 150 30.5 273t83.5 208t127 143t159.5 85t181.5 27q114 0 210.5 -33.5t161.5 -90t101.5 -132t36.5 -158.5q0 -154 -156 -154q-40 0 -109 15q1 52 -5.5 98t-24.5 89.5t-46.5 74.5t-74 50t-103.5 19q-284 0 -284 -516q0 -233 81 -357t228 -124q93 0 179 39.5 t177 109.5q44 -28 82.5 -80t48.5 -98q-78 -78 -198.5 -135.5t-253.5 -71.5q-16 -29 -21 -45q90 -6 144.5 -56t54.5 -124q0 -96 -74.5 -156.5t-191.5 -60.5q-48 0 -94.5 13t-73.5 32q4 77 47 123q44 -27 98 -27q40 0 61 19t21 49t-21 50t-55 20q-18 0 -45 -9q-32 16 -41 41 q14 63 41 131q-105 11 -189 57t-138 114t-90 159t-51 187t-15 202z" />
<glyph unicode="&#xc8;" horiz-adv-x="1167" d="M168 160v1224l14 15h854q11 -56 11 -109q0 -56 -23 -123h-451h-135q0 -27 1 -71t1 -70v-211q51 2 133 2h347q16 -47 16 -112q0 -66 -16 -113h-347h-133v-242q0 -22 -1 -62.5t-1 -64.5q86 4 144 4h501q0 -65 -6 -100q-10 -64 -55.5 -97.5t-120.5 -33.5h-575q-74 0 -116 44 t-42 120zM319 1679q4 57 38.5 118t72.5 89l436 -264q-15 -93 -78 -131z" />
<glyph unicode="&#xc9;" horiz-adv-x="1167" d="M168 160v1224l14 15h854q11 -56 11 -109q0 -56 -23 -123h-451h-135q0 -27 1 -71t1 -70v-211q51 2 133 2h347q16 -47 16 -112q0 -66 -16 -113h-347h-133v-242q0 -22 -1 -62.5t-1 -64.5q86 4 144 4h501q0 -65 -6 -100q-10 -64 -55.5 -97.5t-120.5 -33.5h-575q-74 0 -116 44 t-42 120zM381 1622l436 264q38 -28 72.5 -89t38.5 -118l-469 -188q-29 16 -51 55.5t-27 75.5z" />
<glyph unicode="&#xca;" horiz-adv-x="1167" d="M168 160v1224l14 15h854q11 -56 11 -109q0 -56 -23 -123h-451h-135q0 -27 1 -71t1 -70v-211q51 2 133 2h347q16 -47 16 -112q0 -66 -16 -113h-347h-133v-242q0 -22 -1 -62.5t-1 -64.5q86 4 144 4h501q0 -65 -6 -100q-10 -64 -55.5 -97.5t-120.5 -33.5h-575q-74 0 -116 44 t-42 120zM256 1602l240 239q51 11 115.5 11t111.5 -11l231 -221q-11 -38 -43.5 -69.5t-64.5 -43.5l-236 152l-241 -172q-32 12 -67.5 45.5t-45.5 69.5z" />
<glyph unicode="&#xcb;" horiz-adv-x="1167" d="M168 160v1224l14 15h854q11 -56 11 -109q0 -56 -23 -123h-451h-135q0 -27 1 -71t1 -70v-211q51 2 133 2h347q16 -47 16 -112q0 -66 -16 -113h-347h-133v-242q0 -22 -1 -62.5t-1 -64.5q86 4 144 4h501q0 -65 -6 -100q-10 -64 -55.5 -97.5t-120.5 -33.5h-575q-74 0 -116 44 t-42 120zM250 1632q0 58 22 92q45 29 111 29q61 0 117 -29q20 -31 20 -92q0 -65 -20 -96q-56 -29 -117 -29q-66 0 -111 29q-22 34 -22 96zM700 1632q0 57 25 92q56 29 117 29t110 -29q23 -36 23 -92q0 -60 -23 -96q-49 -29 -110 -29t-117 29q-25 35 -25 96z" />
<glyph unicode="&#xcc;" horiz-adv-x="626" d="M20 1681q4 57 38.5 118t72.5 89l436 -264q-15 -93 -78 -131zM176 0v1399q51 10 137 10q82 0 138 -10v-1399q-56 -10 -138 -10q-86 0 -137 10z" />
<glyph unicode="&#xcd;" horiz-adv-x="626" d="M82 1624l436 264q38 -28 72.5 -89t38.5 -118l-469 -188q-29 16 -51 55.5t-27 75.5zM176 0v1399q51 10 137 10q82 0 138 -10v-1399q-56 -10 -138 -10q-86 0 -137 10z" />
<glyph unicode="&#xce;" horiz-adv-x="626" d="M-43 1604l240 239q51 11 115.5 11t111.5 -11l231 -221q-11 -38 -43.5 -69.5t-64.5 -43.5l-236 152l-241 -172q-32 12 -67.5 45.5t-45.5 69.5zM176 0v1399q51 10 137 10q82 0 138 -10v-1399q-56 -10 -138 -10q-86 0 -137 10z" />
<glyph unicode="&#xcf;" horiz-adv-x="626" d="M-49 1634q0 58 22 92q45 29 111 29q61 0 117 -29q20 -31 20 -92q0 -65 -20 -96q-56 -29 -117 -29q-66 0 -111 29q-22 34 -22 96zM176 0v1399q51 10 137 10q82 0 138 -10v-1399q-56 -10 -138 -10q-86 0 -137 10zM401 1634q0 57 25 92q56 29 117 29t110 -29q23 -36 23 -92 q0 -60 -23 -96q-49 -29 -110 -29t-117 29q-25 35 -25 96z" />
<glyph unicode="&#xd0;" horiz-adv-x="1378" d="M43 707q0 68 10 114h148v568l14 12q237 8 485 8q96 0 199.5 -25.5t167.5 -76.5q67 -55 112.5 -124t69 -149t32.5 -158.5t9 -175.5q0 -99 -9 -177t-32 -158.5t-68.5 -149t-113.5 -123.5q-64 -51 -167.5 -76.5t-199.5 -25.5q-129 0 -485 8l-14 12v588h-148q-10 41 -10 109z M471 205q82 2 229 2q64 0 114.5 20.5t83 58t55 83t33.5 104.5t15.5 112t4.5 115q0 76 -6 138.5t-25.5 131t-51.5 115t-89 77t-134 30.5q-147 0 -229 2v-373h287q10 -46 10 -112q0 -70 -10 -111h-287v-393z" />
<glyph unicode="&#xd1;" horiz-adv-x="1409" d="M170 0v1395q60 14 162 14q91 0 162 -10l372 -793l133 -303l7 2q-21 312 -21 561v375q0 92 35 131t117 39h88l14 -14v-1393q-63 -14 -166 -14q-91 0 -162 10l-376 793q-81 180 -123 286l-9 -2q23 -303 23 -557v-520q-56 -10 -125 -10q-77 0 -131 10zM319 1624l19 39 q35 76 95.5 121t137.5 45q59 0 127 -35l105 -49q38 -19 65 -19q42 0 78 50l21 26q41 0 80.5 -23t54.5 -57l-19 -39q-36 -77 -96.5 -121t-136.5 -44q-65 0 -127 34l-105 50q-32 18 -65 18q-44 0 -78 -49l-20 -29q-41 2 -81 25t-55 57z" />
<glyph unicode="&#xd2;" horiz-adv-x="1355" d="M86 700q0 183 51.5 343t167.5 260q73 60 161.5 92t211.5 32q226 0 373 -124q117 -100 168 -259t51 -344t-51 -344.5t-168 -259.5q-72 -60 -160.5 -92.5t-212.5 -32.5q-221 0 -373 125q-116 100 -167.5 260t-51.5 344zM375 700q0 -514 303 -514t303 514q0 512 -303 512 t-303 -512zM385 1679q4 57 38.5 118t72.5 89l436 -264q-15 -93 -78 -131z" />
<glyph unicode="&#xd3;" horiz-adv-x="1355" d="M86 700q0 183 51.5 343t167.5 260q73 60 161.5 92t211.5 32q226 0 373 -124q117 -100 168 -259t51 -344t-51 -344.5t-168 -259.5q-72 -60 -160.5 -92.5t-212.5 -32.5q-221 0 -373 125q-116 100 -167.5 260t-51.5 344zM375 700q0 -514 303 -514t303 514q0 512 -303 512 t-303 -512zM446 1622l437 264q38 -28 72 -89t38 -118l-469 -188q-29 16 -51 55.5t-27 75.5z" />
<glyph unicode="&#xd4;" horiz-adv-x="1355" d="M86 700q0 183 51.5 343t167.5 260q73 60 161.5 92t211.5 32q226 0 373 -124q117 -100 168 -259t51 -344t-51 -344.5t-168 -259.5q-72 -60 -160.5 -92.5t-212.5 -32.5q-221 0 -373 125q-116 100 -167.5 260t-51.5 344zM322 1602l239 239q51 11 115.5 11t111.5 -11 l232 -221q-11 -38 -44 -69.5t-65 -43.5l-235 152l-242 -172q-32 12 -67 45.5t-45 69.5zM375 700q0 -514 303 -514t303 514q0 512 -303 512t-303 -512z" />
<glyph unicode="&#xd5;" horiz-adv-x="1355" d="M86 700q0 183 51.5 343t167.5 260q73 60 161.5 92t211.5 32q226 0 373 -124q117 -100 168 -259t51 -344t-51 -344.5t-168 -259.5q-72 -60 -160.5 -92.5t-212.5 -32.5q-221 0 -373 125q-116 100 -167.5 260t-51.5 344zM274 1638l19 41q33 74 94 118t139 44q65 0 129 -33 l105 -51q41 -18 67 -18q41 0 80 51l21 27q40 0 79 -23.5t54 -58.5l-19 -37q-34 -77 -95.5 -121.5t-135.5 -44.5q-63 0 -131 35l-105 49q-36 18 -67 18q-40 0 -80 -49l-20 -29q-40 2 -80.5 25t-53.5 57zM375 700q0 -514 303 -514t303 514q0 512 -303 512t-303 -512z" />
<glyph unicode="&#xd6;" horiz-adv-x="1355" d="M86 700q0 183 51.5 343t167.5 260q73 60 161.5 92t211.5 32q226 0 373 -124q117 -100 168 -259t51 -344t-51 -344.5t-168 -259.5q-72 -60 -160.5 -92.5t-212.5 -32.5q-221 0 -373 125q-116 100 -167.5 260t-51.5 344zM315 1632q0 56 23 92q45 29 111 29q60 0 116 -29 q21 -33 21 -92q0 -63 -21 -96q-56 -29 -116 -29q-66 0 -111 29q-23 36 -23 96zM375 700q0 -514 303 -514t303 514q0 512 -303 512t-303 -512zM766 1632q0 57 25 92q56 29 116 29q62 0 111 -29q22 -34 22 -92q0 -62 -22 -96q-49 -29 -111 -29q-60 0 -116 29q-25 35 -25 96z " />
<glyph unicode="&#xd7;" d="M131 356l176 176l78 74q-14 15 -42 41.5t-36 34.5l-176 176q24 52 66 94q42 45 94 66l176 -176q50 -53 76 -78q9 9 33.5 35.5t39.5 40.5l177 178q50 -24 92 -66q44 -44 67 -94l-176 -176l-78 -76l78 -74l176 -176q-24 -53 -65 -94q-40 -44 -94 -65l-177 178 q-12 10 -23 21.5t-28 30t-22 24.5q-9 -9 -24.5 -25t-28 -28.5t-23.5 -22.5l-176 -178q-53 24 -94 65q-45 49 -66 94z" />
<glyph unicode="&#xd8;" horiz-adv-x="1361" d="M86 700q0 182 52.5 342.5t168.5 260.5q147 124 373 124q142 0 248 -45l86 150q47 -6 96 -32.5t78 -61.5l-96 -172q95 -102 139.5 -252t44.5 -314q0 -181 -53 -342.5t-168 -261.5q-149 -125 -375 -125q-135 0 -248 45l-84 -145q-46 6 -95.5 32.5t-76.5 61.5l94 166 q-95 102 -139.5 252.5t-44.5 316.5zM365 700q0 -189 43 -311l413 795q-63 37 -141 37q-63 0 -114 -22t-84.5 -62t-57 -89t-36 -110t-18 -118t-5.5 -120zM539 213q59 -35 141 -35q76 0 134 32.5t92 83.5t55 122.5t28.5 139t7.5 144.5q0 187 -45 308z" />
<glyph unicode="&#xd9;" horiz-adv-x="1374" d="M152 504v893l12 14h102q82 0 121 -42t39 -134v-733q0 -312 262 -312q260 0 260 312v897q54 10 135 10q86 0 140 -10v-895q0 -255 -141.5 -394t-395.5 -139q-252 0 -393 139t-141 394zM391 1679q4 57 38.5 118t72.5 89l436 -264q-15 -93 -78 -131z" />
<glyph unicode="&#xda;" horiz-adv-x="1374" d="M152 504v893l12 14h102q82 0 121 -42t39 -134v-733q0 -312 262 -312q260 0 260 312v897q54 10 135 10q86 0 140 -10v-895q0 -255 -141.5 -394t-395.5 -139q-252 0 -393 139t-141 394zM453 1622l436 264q38 -28 72 -89t38 -118l-469 -188q-29 16 -50.5 55t-26.5 76z" />
<glyph unicode="&#xdb;" horiz-adv-x="1374" d="M152 504v893l12 14h102q82 0 121 -42t39 -134v-733q0 -312 262 -312q260 0 260 312v897q54 10 135 10q86 0 140 -10v-895q0 -255 -141.5 -394t-395.5 -139q-252 0 -393 139t-141 394zM328 1602l239 239q51 11 116 11t112 -11l231 -221q-11 -38 -43.5 -69.5t-64.5 -43.5 l-236 152l-242 -172q-32 12 -67 45.5t-45 69.5z" />
<glyph unicode="&#xdc;" horiz-adv-x="1374" d="M152 504v893l12 14h102q82 0 121 -42t39 -134v-733q0 -312 262 -312q260 0 260 312v897q54 10 135 10q86 0 140 -10v-895q0 -255 -141.5 -394t-395.5 -139q-252 0 -393 139t-141 394zM322 1632q0 58 22 92q45 29 111 29q60 0 116 -29q21 -33 21 -92q0 -63 -21 -96 q-56 -29 -116 -29q-66 0 -111 29q-22 34 -22 96zM772 1632q0 57 25 92q56 29 116 29q62 0 111 -29q23 -36 23 -92q0 -60 -23 -96q-49 -29 -111 -29q-60 0 -116 29q-25 35 -25 96z" />
<glyph unicode="&#xdd;" horiz-adv-x="1054" d="M-4 1366q84 49 170 49q55 0 87 -26.5t58 -88.5l129 -315q51 -131 88 -274h13q35 128 96 282l162 406q46 10 112 10q78 0 136 -18l10 -17l-393 -938v-436q-54 -10 -138 -10q-83 0 -137 10v444zM303 1622l436 264q38 -28 72.5 -89t38.5 -118l-469 -188q-29 16 -51 55.5 t-27 75.5z" />
<glyph unicode="&#xde;" horiz-adv-x="1189" d="M170 0v1399q54 10 137 10t137 -10v-201q30 0 91.5 1t93.5 1q224 0 356.5 -113t132.5 -342q0 -225 -133.5 -341.5t-355.5 -116.5h-185v-287q-54 -10 -137 -10t-137 10zM444 500q68 2 168 2q65 0 111 21.5t69.5 59t33.5 77t10 85.5q0 45 -10 84.5t-33 76.5t-69.5 59 t-111.5 22q-11 0 -69.5 1t-98.5 1v-489z" />
<glyph unicode="&#xdf;" horiz-adv-x="1314" d="M18 872q0 46 11 103l176 -2v57q0 194 127.5 298t343.5 104q218 0 348.5 -113.5t130.5 -304.5q0 -71 -33 -158q-74 -19 -110.5 -57t-36.5 -78q0 -45 57 -96l78 -74q147 -141 147 -270q0 -144 -109.5 -227t-287.5 -83q-62 0 -134.5 15.5t-129.5 44.5q2 45 24.5 100.5 t53.5 85.5q85 -43 160 -43q63 0 102 29t39 76q0 55 -72 120l-84 76q-66 60 -97.5 113t-31.5 114q0 71 50 138.5t137 103.5q6 30 6 64q0 93 -54 156t-153 63q-101 0 -150 -59.5t-49 -166.5v-1001q-68 -10 -137 -10q-67 0 -135 10v768l-176 -2q-11 57 -11 106z" />
<glyph unicode="&#xe0;" horiz-adv-x="1044" d="M74 279q0 87 32 154.5t87.5 108.5t126 62t153.5 21q101 0 172 -7v56q0 155 -151 155q-109 0 -312 -71q-28 31 -46 83.5t-23 106.5q96 40 221.5 66t226.5 26q73 0 134.5 -20t110.5 -60.5t77 -108.5t28 -157v-420q0 -106 58 -151q-9 -37 -35.5 -78t-54.5 -61 q-133 14 -195 116q-133 -129 -303 -129q-75 0 -135 27t-96.5 72t-56 98.5t-19.5 110.5zM221 1382q17 52 67.5 99t104.5 65l305 -336q-13 -36 -45 -65.5t-68 -40.5zM338 295q0 -53 30.5 -87t84.5 -34q102 0 192 90v178q-89 7 -147 7q-78 0 -119 -41t-41 -113z" />
<glyph unicode="&#xe1;" horiz-adv-x="1044" d="M74 279q0 87 32 154.5t87.5 108.5t126 62t153.5 21q101 0 172 -7v56q0 155 -151 155q-109 0 -312 -71q-28 31 -46 83.5t-23 106.5q96 40 221.5 66t226.5 26q73 0 134.5 -20t110.5 -60.5t77 -108.5t28 -157v-420q0 -106 58 -151q-9 -37 -35.5 -78t-54.5 -61 q-133 14 -195 116q-133 -129 -303 -129q-75 0 -135 27t-96.5 72t-56 98.5t-19.5 110.5zM334 1210l307 336q54 -18 104 -64.5t68 -99.5l-367 -278q-35 11 -67 40.5t-45 65.5zM338 295q0 -53 30.5 -87t84.5 -34q102 0 192 90v178q-89 7 -147 7q-78 0 -119 -41t-41 -113z" />
<glyph unicode="&#xe2;" horiz-adv-x="1044" d="M74 279q0 87 32 154.5t87.5 108.5t126 62t153.5 21q101 0 172 -7v56q0 155 -151 155q-109 0 -312 -71q-28 31 -46 83.5t-23 106.5q96 40 221.5 66t226.5 26q73 0 134.5 -20t110.5 -60.5t77 -108.5t28 -157v-420q0 -106 58 -151q-9 -37 -35.5 -78t-54.5 -61 q-133 14 -195 116q-133 -129 -303 -129q-75 0 -135 27t-96.5 72t-56 98.5t-19.5 110.5zM190 1217l215 276q47 14 111 13.5t112 -13.5l193 -256q-16 -40 -52 -71.5t-67 -41.5l-190 183l-201 -195q-32 11 -65.5 39t-55.5 66zM338 295q0 -53 30.5 -87t84.5 -34q102 0 192 90 v178q-89 7 -147 7q-78 0 -119 -41t-41 -113z" />
<glyph unicode="&#xe3;" horiz-adv-x="1044" d="M74 279q0 87 32 154.5t87.5 108.5t126 62t153.5 21q101 0 172 -7v56q0 155 -151 155q-109 0 -312 -71q-28 31 -46 83.5t-23 106.5q96 40 221.5 66t226.5 26q73 0 134.5 -20t110.5 -60.5t77 -108.5t28 -157v-420q0 -106 58 -151q-9 -37 -35.5 -78t-54.5 -61 q-133 14 -195 116q-133 -129 -303 -129q-75 0 -135 27t-96.5 72t-56 98.5t-19.5 110.5zM131 1243l18 41q31 75 89.5 119.5t131.5 44.5q62 0 123 -33l101 -51q36 -18 63 -18q40 0 76 51l20 26q37 0 74.5 -23.5t52.5 -58.5l-18 -38q-33 -77 -91.5 -121.5t-129.5 -44.5 q-61 0 -123 34l-101 50q-32 18 -63 18q-39 0 -76 -49l-20 -29q-38 2 -76 25t-51 57zM338 295q0 -53 30.5 -87t84.5 -34q102 0 192 90v178q-89 7 -147 7q-78 0 -119 -41t-41 -113z" />
<glyph unicode="&#xe4;" horiz-adv-x="1044" d="M74 279q0 87 32 154.5t87.5 108.5t126 62t153.5 21q101 0 172 -7v56q0 155 -151 155q-109 0 -312 -71q-28 31 -46 83.5t-23 106.5q96 40 221.5 66t226.5 26q73 0 134.5 -20t110.5 -60.5t77 -108.5t28 -157v-420q0 -106 58 -151q-9 -37 -35.5 -78t-54.5 -61 q-133 14 -195 116q-133 -129 -303 -129q-75 0 -135 27t-96.5 72t-56 98.5t-19.5 110.5zM174 1266q0 51 16 92q48 28 117 28t117 -28q16 -41 16 -92q0 -53 -16 -92q-47 -29 -117 -29t-117 29q-16 41 -16 92zM338 295q0 -53 30.5 -87t84.5 -34q102 0 192 90v178q-89 7 -147 7 q-78 0 -119 -41t-41 -113zM571 1266q0 48 17 92q48 28 117 28q68 0 116 -28q17 -44 17 -92q0 -51 -17 -92q-47 -29 -116 -29q-70 0 -117 29q-17 44 -17 92z" />
<glyph unicode="&#xe5;" horiz-adv-x="1044" d="M74 279q0 87 32 154.5t87.5 108.5t126 62t153.5 21q101 0 172 -7v56q0 155 -151 155q-109 0 -312 -71q-28 31 -46 83.5t-23 106.5q96 40 221.5 66t226.5 26q73 0 134.5 -20t110.5 -60.5t77 -108.5t28 -157v-420q0 -106 58 -151q-9 -37 -35.5 -78t-54.5 -61 q-133 14 -195 116q-133 -129 -303 -129q-75 0 -135 27t-96.5 72t-56 98.5t-19.5 110.5zM238 1356q0 105 74.5 176.5t193.5 71.5t193.5 -71.5t74.5 -176.5t-74.5 -176.5t-193.5 -71.5t-193.5 71.5t-74.5 176.5zM338 295q0 -53 30.5 -87t84.5 -34q102 0 192 90v178 q-89 7 -147 7q-78 0 -119 -41t-41 -113zM403 1356q0 -46 29 -76.5t74 -30.5t73.5 30.5t28.5 76.5t-28.5 77t-73.5 31t-74 -31t-29 -77z" />
<glyph unicode="&#xe6;" horiz-adv-x="1572" d="M74 279q0 87 32 154.5t87.5 108.5t126 62t153.5 21t172 -9v60q0 153 -149 153q-121 0 -314 -71q-28 31 -46 83.5t-23 106.5q97 40 216 66t214 26q171 0 260 -108q115 112 276 112q195 0 305.5 -121.5t110.5 -312.5q0 -101 -22 -188h-562q7 -116 52.5 -179t154.5 -63 q125 0 273 72q30 -29 50 -74.5t27 -89.5q-76 -55 -179.5 -86t-211.5 -31q-223 0 -338 156q-152 -156 -358 -156q-75 0 -135 27t-96.5 72t-56 98.5t-19.5 110.5zM338 295q0 -53 30.5 -87t84.5 -34q118 0 217 111q-23 89 -25 157q-89 7 -147 7q-78 0 -119 -41t-41 -113z M911 610h332v23q0 98 -39.5 158.5t-124.5 60.5q-156 0 -168 -242z" />
<glyph unicode="&#xe7;" horiz-adv-x="968" d="M76 504q0 113 25 205t67.5 153.5t100 103t120.5 60t131 18.5q174 0 279.5 -94.5t105.5 -228.5q0 -67 -35.5 -102t-97.5 -35q-67 0 -108 10q1 59 -5 101t-21.5 77.5t-46.5 53.5t-77 18q-84 0 -124 -83t-40 -257q0 -169 51 -244.5t152 -75.5q106 0 238 95 q32 -20 63.5 -66.5t40.5 -87.5q-125 -125 -315 -150q-16 -29 -21 -45q90 -6 144.5 -56t54.5 -124q0 -96 -74.5 -156.5t-191.5 -60.5q-48 0 -94.5 13t-73.5 32q3 73 47 123q48 -27 98 -27q40 0 61 19t21 49t-20 50t-56 20q-14 0 -45 -9q-27 14 -41 41q20 74 43 133 q-175 27 -265.5 169t-90.5 358z" />
<glyph unicode="&#xe8;" horiz-adv-x="1019" d="M76 504q0 117 26.5 214t79.5 170.5t138.5 114.5t197.5 41q196 0 307 -122t111 -312q0 -97 -23 -188h-565q7 -116 53.5 -179t155.5 -63q123 0 277 70q29 -29 48.5 -74t26.5 -88q-76 -55 -180.5 -86t-212.5 -31q-100 0 -177.5 29.5t-126.5 78.5t-80 119.5t-43.5 144.5 t-12.5 161zM236 1382q17 52 67.5 99t104.5 65l305 -336q-13 -36 -45 -65.5t-68 -40.5zM346 610h340v25q0 97 -41 157t-127 60q-160 0 -172 -242z" />
<glyph unicode="&#xe9;" horiz-adv-x="1019" d="M76 504q0 117 26.5 214t79.5 170.5t138.5 114.5t197.5 41q196 0 307 -122t111 -312q0 -97 -23 -188h-565q7 -116 53.5 -179t155.5 -63q123 0 277 70q29 -29 48.5 -74t26.5 -88q-76 -55 -180.5 -86t-212.5 -31q-100 0 -177.5 29.5t-126.5 78.5t-80 119.5t-43.5 144.5 t-12.5 161zM346 610h340v25q0 97 -41 157t-127 60q-160 0 -172 -242zM348 1210l307 336q54 -18 104 -64.5t68 -99.5l-366 -278q-35 11 -67.5 40.5t-45.5 65.5z" />
<glyph unicode="&#xea;" horiz-adv-x="1019" d="M76 504q0 117 26.5 214t79.5 170.5t138.5 114.5t197.5 41q196 0 307 -122t111 -312q0 -97 -23 -188h-565q7 -116 53.5 -179t155.5 -63q123 0 277 70q29 -29 48.5 -74t26.5 -88q-76 -55 -180.5 -86t-212.5 -31q-100 0 -177.5 29.5t-126.5 78.5t-80 119.5t-43.5 144.5 t-12.5 161zM207 1217l215 276q47 14 111 13.5t112 -13.5l193 -256q-16 -40 -52 -71.5t-67 -41.5l-190 183l-201 -195q-32 11 -65.5 39t-55.5 66zM346 610h340v25q0 97 -41 157t-127 60q-160 0 -172 -242z" />
<glyph unicode="&#xeb;" horiz-adv-x="1019" d="M76 504q0 117 26.5 214t79.5 170.5t138.5 114.5t197.5 41q196 0 307 -122t111 -312q0 -97 -23 -188h-565q7 -116 53.5 -179t155.5 -63q123 0 277 70q29 -29 48.5 -74t26.5 -88q-76 -55 -180.5 -86t-212.5 -31q-100 0 -177.5 29.5t-126.5 78.5t-80 119.5t-43.5 144.5 t-12.5 161zM190 1266q0 48 17 92q48 28 117 28q68 0 116 -28q17 -44 17 -92q0 -51 -17 -92q-47 -29 -116 -29q-70 0 -117 29q-17 44 -17 92zM346 610h340v25q0 97 -41 157t-127 60q-160 0 -172 -242zM588 1266q0 51 16 92q48 28 117 28t117 -28q16 -41 16 -92q0 -53 -16 -92 q-47 -29 -117 -29t-117 29q-16 41 -16 92z" />
<glyph unicode="&#xec;" horiz-adv-x="571" d="M-27 1382q17 52 67.5 99t104.5 65l306 -336q-13 -36 -45 -65.5t-68 -40.5zM37 918q0 50 12 96q95 10 156 10h35q91 0 143.5 -57.5t52.5 -157.5v-809q-62 -10 -133 -10q-70 0 -135 10v713q0 56 -21 84t-71 28h-27q-12 46 -12 93z" />
<glyph unicode="&#xed;" horiz-adv-x="571" d="M37 918q0 50 12 96q95 10 156 10h35q91 0 143.5 -57.5t52.5 -157.5v-809q-62 -10 -133 -10q-70 0 -135 10v713q0 56 -21 84t-71 28h-27q-12 46 -12 93zM86 1210l307 336q54 -18 104 -64.5t68 -99.5l-366 -278q-35 11 -67.5 40.5t-45.5 65.5z" />
<glyph unicode="&#xee;" horiz-adv-x="571" d="M-55 1217l215 276q47 14 111 13.5t112 -13.5l192 -256q-16 -40 -51.5 -71.5t-66.5 -41.5l-191 183l-200 -195q-32 11 -65.5 39t-55.5 66zM37 918q0 50 12 96q95 10 156 10h35q91 0 143.5 -57.5t52.5 -157.5v-809q-62 -10 -133 -10q-70 0 -135 10v713q0 56 -21 84t-71 28 h-27q-12 46 -12 93z" />
<glyph unicode="&#xef;" horiz-adv-x="571" d="M-72 1266q0 48 17 92q48 28 116 28q69 0 117 -28q17 -44 17 -92q0 -51 -17 -92q-47 -29 -117 -29q-69 0 -116 29q-17 44 -17 92zM37 918q0 50 12 96q95 10 156 10h35q91 0 143.5 -57.5t52.5 -157.5v-809q-62 -10 -133 -10q-70 0 -135 10v713q0 56 -21 84t-71 28h-27 q-12 46 -12 93zM326 1266q0 51 16 92q48 28 117 28q68 0 116 -28q17 -44 17 -92q0 -51 -17 -92q-47 -29 -116 -29q-70 0 -117 29q-16 41 -16 92z" />
<glyph unicode="&#xf0;" horiz-adv-x="1062" d="M72 496q0 255 147 393q117 108 291 108q53 0 113 -24q-37 98 -140 201l-194 -134q-31 23 -57 59t-33 70l161 111q-62 47 -145 92q6 48 37 96.5t67 67.5q120 -50 230 -127l174 121q31 -21 57 -56.5t35 -72.5l-139 -96q311 -302 311 -799q0 -277 -145 -418 q-120 -117 -314 -117q-191 0 -311 117q-145 141 -145 408zM346 492q0 -322 184 -322q54 0 91.5 26.5t56.5 75.5t27 105t8 129q0 146 -25 252q-76 47 -156 47q-186 0 -186 -313z" />
<glyph unicode="&#xf1;" horiz-adv-x="1118" d="M141 0v1014l13 14h102q118 0 143 -123q150 129 308 129q136 0 207 -95.5t71 -254.5v-446q0 -131 43 -195q-67 -57 -168 -57q-77 0 -110 40.5t-33 125.5v477q0 89 -23 127.5t-84 38.5q-47 0 -102 -26t-100 -73v-696q-62 -10 -134 -10q-71 0 -133 10zM199 1243l18 41 q31 75 89.5 119.5t131.5 44.5q63 0 123 -33l101 -51q36 -18 63 -18q40 0 76 51l20 26q37 0 74.5 -23.5t52.5 -58.5l-18 -38q-33 -77 -91.5 -121.5t-129.5 -44.5q-61 0 -123 34l-101 50q-32 18 -63 18q-39 0 -76 -49l-20 -29q-38 2 -76 25t-51 57z" />
<glyph unicode="&#xf2;" horiz-adv-x="1067" d="M76 508q0 137 33.5 240.5t111.5 181.5q120 114 311 114q194 0 314 -114q78 -78 111.5 -181.5t33.5 -240.5t-33 -239t-112 -181q-120 -117 -314 -117q-191 0 -311 117q-79 79 -112 181t-33 239zM248 1382q17 52 67.5 99t104.5 65l305 -336q-13 -36 -45 -65.5t-68 -40.5z M350 508q0 -73 8 -128.5t27.5 -104.5t57 -75t92.5 -26q44 0 76.5 18t52.5 48t32 74t16.5 90.5t4.5 103.5q0 58 -4.5 104.5t-16.5 91t-32 74.5t-52.5 48t-76.5 18q-55 0 -92.5 -26t-57 -75.5t-27.5 -105.5t-8 -129z" />
<glyph unicode="&#xf3;" horiz-adv-x="1067" d="M76 508q0 137 33.5 240.5t111.5 181.5q120 114 311 114q194 0 314 -114q78 -78 111.5 -181.5t33.5 -240.5t-33 -239t-112 -181q-120 -117 -314 -117q-191 0 -311 117q-79 79 -112 181t-33 239zM350 508q0 -73 8 -128.5t27.5 -104.5t57 -75t92.5 -26q44 0 76.5 18t52.5 48 t32 74t16.5 90.5t4.5 103.5q0 58 -4.5 104.5t-16.5 91t-32 74.5t-52.5 48t-76.5 18q-55 0 -92.5 -26t-57 -75.5t-27.5 -105.5t-8 -129zM360 1210l308 336q54 -18 104 -64.5t68 -99.5l-367 -278q-35 11 -67.5 40.5t-45.5 65.5z" />
<glyph unicode="&#xf4;" horiz-adv-x="1067" d="M76 508q0 137 33.5 240.5t111.5 181.5q120 114 311 114q194 0 314 -114q78 -78 111.5 -181.5t33.5 -240.5t-33 -239t-112 -181q-120 -117 -314 -117q-191 0 -311 117q-79 79 -112 181t-33 239zM217 1217l215 276q47 14 111 13.5t112 -13.5l193 -256q-16 -40 -52 -71.5 t-67 -41.5l-190 183l-201 -195q-32 11 -65.5 39t-55.5 66zM350 508q0 -73 8 -128.5t27.5 -104.5t57 -75t92.5 -26q44 0 76.5 18t52.5 48t32 74t16.5 90.5t4.5 103.5q0 58 -4.5 104.5t-16.5 91t-32 74.5t-52.5 48t-76.5 18q-55 0 -92.5 -26t-57 -75.5t-27.5 -105.5t-8 -129z " />
<glyph unicode="&#xf5;" horiz-adv-x="1067" d="M76 508q0 137 33.5 240.5t111.5 181.5q120 114 311 114q194 0 314 -114q78 -78 111.5 -181.5t33.5 -240.5t-33 -239t-112 -181q-120 -117 -314 -117q-191 0 -311 117q-79 79 -112 181t-33 239zM158 1243l18 41q31 75 89.5 119.5t131.5 44.5q63 0 123 -33l101 -51 q36 -18 63 -18q40 0 76 51l20 26q37 0 74.5 -23.5t52.5 -58.5l-18 -38q-33 -77 -91.5 -121.5t-129.5 -44.5q-61 0 -123 34l-101 50q-32 18 -63 18q-39 0 -76 -49l-20 -29q-38 2 -76 25t-51 57zM350 508q0 -73 8 -128.5t27.5 -104.5t57 -75t92.5 -26q44 0 76.5 18t52.5 48 t32 74t16.5 90.5t4.5 103.5q0 58 -4.5 104.5t-16.5 91t-32 74.5t-52.5 48t-76.5 18q-55 0 -92.5 -26t-57 -75.5t-27.5 -105.5t-8 -129z" />
<glyph unicode="&#xf6;" horiz-adv-x="1067" d="M76 508q0 137 33.5 240.5t111.5 181.5q120 114 311 114q194 0 314 -114q78 -78 111.5 -181.5t33.5 -240.5t-33 -239t-112 -181q-120 -117 -314 -117q-191 0 -311 117q-79 79 -112 181t-33 239zM201 1266q0 51 16 92q48 28 117 28t117 -28q16 -41 16 -92q0 -53 -16 -92 q-47 -29 -117 -29t-117 29q-16 41 -16 92zM350 508q0 -73 8 -128.5t27.5 -104.5t57 -75t92.5 -26q44 0 76.5 18t52.5 48t32 74t16.5 90.5t4.5 103.5q0 58 -4.5 104.5t-16.5 91t-32 74.5t-52.5 48t-76.5 18q-55 0 -92.5 -26t-57 -75.5t-27.5 -105.5t-8 -129zM598 1266 q0 51 16 92q48 28 117 28t117 -28q16 -41 16 -92q0 -53 -16 -92q-47 -29 -117 -29t-117 29q-16 41 -16 92z" />
<glyph unicode="&#xf7;" d="M100 606q0 62 11 113h864q10 -46 10 -113q0 -64 -10 -108h-864q-11 48 -11 108zM399 240q0 54 21 98q49 27 123 27q79 0 121 -27q20 -36 20 -98q0 -61 -20 -97q-41 -26 -121 -26q-81 0 -123 26q-21 44 -21 97zM399 973q0 52 21 96q53 29 123 29q32 0 67 -8.5t54 -20.5 q20 -36 20 -96t-20 -99q-41 -26 -121 -26q-81 0 -123 26q-21 47 -21 99z" />
<glyph unicode="&#xf8;" horiz-adv-x="1073" d="M78 510q0 278 145 420q117 114 314 114q97 0 176 -30l71 125q88 -21 142 -78l-76 -133q143 -143 143 -418q0 -279 -143 -422q-120 -117 -313 -117q-99 0 -181 31l-71 -121q-91 18 -142 78l76 133q-141 141 -141 418zM328 510q0 -113 20 -182l268 510q-37 16 -79 16 q-209 0 -209 -344zM455 180q37 -16 82 -16q206 0 206 346q0 103 -20 182z" />
<glyph unicode="&#xf9;" horiz-adv-x="1122" d="M90 975q67 57 168 57q77 0 110 -41.5t33 -126.5v-477q0 -89 23 -126.5t84 -37.5q46 0 102 24.5t101 69.5v699q46 10 133 10q86 0 135 -10v-727q0 -122 57 -170q-9 -36 -35 -75.5t-55 -59.5q-150 15 -207 145q-158 -147 -325 -147q-137 0 -209 96.5t-72 253.5v448 q0 129 -43 195zM260 1382q17 52 67.5 99t104.5 65l305 -336q-13 -36 -45 -65.5t-68 -40.5z" />
<glyph unicode="&#xfa;" horiz-adv-x="1122" d="M90 975q67 57 168 57q77 0 110 -41.5t33 -126.5v-477q0 -89 23 -126.5t84 -37.5q46 0 102 24.5t101 69.5v699q46 10 133 10q86 0 135 -10v-727q0 -122 57 -170q-9 -36 -35 -75.5t-55 -59.5q-150 15 -207 145q-158 -147 -325 -147q-137 0 -209 96.5t-72 253.5v448 q0 129 -43 195zM373 1210l307 336q54 -18 104 -64.5t68 -99.5l-367 -278q-35 11 -67 40.5t-45 65.5z" />
<glyph unicode="&#xfb;" horiz-adv-x="1122" d="M90 975q67 57 168 57q77 0 110 -41.5t33 -126.5v-477q0 -89 23 -126.5t84 -37.5q46 0 102 24.5t101 69.5v699q46 10 133 10q86 0 135 -10v-727q0 -122 57 -170q-9 -36 -35 -75.5t-55 -59.5q-150 15 -207 145q-158 -147 -325 -147q-137 0 -209 96.5t-72 253.5v448 q0 129 -43 195zM229 1217l215 276q47 14 111 13.5t112 -13.5l193 -256q-16 -40 -52 -71.5t-67 -41.5l-190 183l-201 -195q-32 11 -65.5 39t-55.5 66z" />
<glyph unicode="&#xfc;" horiz-adv-x="1122" d="M90 975q67 57 168 57q77 0 110 -41.5t33 -126.5v-477q0 -89 23 -126.5t84 -37.5q46 0 102 24.5t101 69.5v699q46 10 133 10q86 0 135 -10v-727q0 -122 57 -170q-9 -36 -35 -75.5t-55 -59.5q-150 15 -207 145q-158 -147 -325 -147q-137 0 -209 96.5t-72 253.5v448 q0 129 -43 195zM213 1266q0 51 16 92q48 28 117 28t117 -28q16 -41 16 -92q0 -53 -16 -92q-47 -29 -117 -29t-117 29q-16 41 -16 92zM610 1266q0 48 17 92q48 28 116 28q69 0 117 -28q17 -44 17 -92q0 -51 -17 -92q-47 -29 -117 -29q-69 0 -116 29q-17 44 -17 92z" />
<glyph unicode="&#xfd;" horiz-adv-x="989" d="M6 -410q-4 46 12.5 103t42.5 88q94 -29 170 -29q85 0 138 53.5t84 155.5l8 27q-78 2 -123.5 28.5t-63.5 89.5l-254 889q82 39 164 39q52 0 83.5 -25.5t49.5 -90.5l117 -433q18 -64 60 -284q2 -15 18 -15l201 830q47 12 108 12q83 0 142 -20l10 -17l-262 -962 q-27 -95 -53.5 -163t-66 -131t-88.5 -101t-118 -60.5t-156 -22.5q-51 0 -116 12t-107 27zM319 1210l308 336q54 -18 104 -64.5t68 -99.5l-367 -278q-35 11 -67.5 40.5t-45.5 65.5z" />
<glyph unicode="&#xfe;" horiz-adv-x="1087" d="M141 -428v1921l13 14h100q81 0 113 -38t32 -128v-399q113 94 250 94q168 0 264.5 -139.5t96.5 -361.5q0 -139 -34 -248.5t-91 -174t-125.5 -97.5t-143.5 -33q-111 0 -217 53v-311q0 -90 -32 -128t-113 -38h-100zM399 244q94 -60 166 -60q81 0 126.5 86.5t45.5 247.5 q0 153 -42.5 227t-110.5 74q-47 0 -96 -25t-89 -79v-471z" />
<glyph unicode="&#xff;" horiz-adv-x="989" d="M6 -410q-4 46 12.5 103t42.5 88q94 -29 170 -29q85 0 138 53.5t84 155.5l8 27q-78 2 -123.5 28.5t-63.5 89.5l-254 889q82 39 164 39q52 0 83.5 -25.5t49.5 -90.5l117 -433q18 -64 60 -284q2 -15 18 -15l201 830q47 12 108 12q83 0 142 -20l10 -17l-262 -962 q-27 -95 -53.5 -163t-66 -131t-88.5 -101t-118 -60.5t-156 -22.5q-51 0 -116 12t-107 27zM160 1266q0 51 16 92q48 28 117 28t117 -28q16 -41 16 -92q0 -53 -16 -92q-47 -29 -117 -29t-117 29q-16 41 -16 92zM557 1266q0 51 16 92q48 28 117 28t117 -28q16 -41 16 -92 q0 -53 -16 -92q-47 -29 -117 -29t-117 29q-16 41 -16 92z" />
<glyph unicode="&#x152;" horiz-adv-x="1857" d="M86 700q0 183 52.5 343.5t168.5 259.5q73 60 162 92t213 32q82 0 283 -28h778q8 -41 8 -109q0 -67 -22 -123h-451h-135q0 -27 1 -71t1 -70v-211q51 2 133 2h348q14 -49 14 -112q0 -64 -14 -113h-348h-133v-240q0 -22 -1 -62.5t-1 -64.5q86 4 143 4h502q0 -67 -6 -100 q-21 -131 -174 -131h-645q-189 -27 -281 -27q-124 0 -212.5 32t-162.5 93q-116 99 -168.5 260t-52.5 344zM371 700q0 -77 7 -143t27.5 -137t53.5 -120.5t89.5 -81.5t131.5 -32q85 0 199 29v967q-105 30 -197 30q-75 0 -132.5 -32t-90.5 -81t-53.5 -119.5t-27.5 -136.5 t-7 -143z" />
<glyph unicode="&#x153;" horiz-adv-x="1667" d="M76 508q0 137 33.5 240.5t111.5 181.5q120 114 311 114q213 0 326 -145q106 145 316 145q195 0 305 -121.5t110 -312.5q0 -101 -22 -188h-561q7 -116 52 -179t154 -63q122 0 273 70q29 -29 49.5 -74t26.5 -88q-74 -55 -178.5 -86t-211.5 -31q-220 0 -319 140 q-111 -140 -320 -140q-191 0 -311 117q-79 79 -112 181t-33 239zM350 508q0 -73 8 -128.5t27.5 -104.5t57 -75t92.5 -26q44 0 76.5 18t52.5 48t32 74t16.5 90.5t4.5 103.5q0 58 -4.5 104.5t-16.5 91t-32 74.5t-52.5 48t-76.5 18q-55 0 -92.5 -26t-57 -75.5t-27.5 -105.5 t-8 -129zM1004 610h333v23q0 99 -39 159t-124 60q-158 0 -170 -242z" />
<glyph unicode="&#x178;" horiz-adv-x="1054" d="M-4 1366q84 49 170 49q55 0 87 -26.5t58 -88.5l129 -315q51 -131 88 -274h13q35 128 96 282l162 406q46 10 112 10q78 0 136 -18l10 -17l-393 -938v-436q-54 -10 -138 -10q-83 0 -137 10v444zM172 1632q0 56 23 92q45 29 110 29q61 0 117 -29q20 -31 20 -92 q0 -65 -20 -96q-56 -29 -117 -29q-65 0 -110 29q-23 36 -23 96zM623 1632q0 59 24 92q56 29 117 29t110 -29q23 -36 23 -92q0 -60 -23 -96q-49 -29 -110 -29t-117 29q-24 33 -24 96z" />
<glyph unicode="&#x2c6;" horiz-adv-x="815" d="M92 1217l215 276q47 14 111 13.5t112 -13.5l193 -256q-16 -40 -52 -71.5t-67 -41.5l-190 183l-201 -195q-32 11 -65.5 39t-55.5 66z" />
<glyph unicode="&#x2dc;" horiz-adv-x="815" d="M33 1243l18 41q31 75 89.5 119.5t131.5 44.5q62 0 123 -33l101 -51q36 -18 63 -18q40 0 76 51l20 26q37 0 74.5 -23.5t52.5 -58.5l-18 -38q-33 -77 -91.5 -121.5t-129.5 -44.5q-61 0 -123 34l-101 50q-32 18 -63 18q-39 0 -76 -49l-20 -29q-38 2 -76 25t-51 57z" />
<glyph unicode="&#x2000;" horiz-adv-x="944" />
<glyph unicode="&#x2001;" horiz-adv-x="1888" />
<glyph unicode="&#x2002;" horiz-adv-x="944" />
<glyph unicode="&#x2003;" horiz-adv-x="1888" />
<glyph unicode="&#x2004;" horiz-adv-x="629" />
<glyph unicode="&#x2005;" horiz-adv-x="472" />
<glyph unicode="&#x2006;" horiz-adv-x="314" />
<glyph unicode="&#x2007;" horiz-adv-x="314" />
<glyph unicode="&#x2008;" horiz-adv-x="236" />
<glyph unicode="&#x2009;" horiz-adv-x="377" />
<glyph unicode="&#x200a;" horiz-adv-x="104" />
<glyph unicode="&#x2010;" horiz-adv-x="745" d="M88 549q0 66 12 110h543q12 -44 12 -110q0 -67 -12 -111h-543q-12 44 -12 111z" />
<glyph unicode="&#x2011;" horiz-adv-x="745" d="M88 549q0 66 12 110h543q12 -44 12 -110q0 -67 -12 -111h-543q-12 44 -12 111z" />
<glyph unicode="&#x2012;" horiz-adv-x="745" d="M88 549q0 66 12 110h543q12 -44 12 -110q0 -67 -12 -111h-543q-12 44 -12 111z" />
<glyph unicode="&#x2013;" horiz-adv-x="1114" d="M119 543q0 62 12 104h852q12 -42 12 -104q0 -61 -12 -105h-852q-12 44 -12 105z" />
<glyph unicode="&#x2014;" horiz-adv-x="1652" d="M145 543q0 56 11 104h1341q12 -42 12 -104q0 -61 -12 -105h-1341q-11 51 -11 105z" />
<glyph unicode="&#x2018;" horiz-adv-x="509" d="M82 1196q0 138 80 245.5t233 155.5q34 -17 51.5 -52t12.5 -72q-61 -25 -109 -70t-51 -105q75 -14 90 -28q9 -15 16 -48t7 -61t-7 -62.5t-16 -51.5q-23 -14 -64.5 -23.5t-76.5 -9.5q-37 0 -78.5 9t-63.5 24q-24 67 -24 149z" />
<glyph unicode="&#x2019;" horiz-adv-x="509" d="M49 1139q61 22 110 68t52 106q-68 9 -90 26q-23 44 -23 109q0 79 23 117q62 32 141 32q36 0 76.5 -9.5t62.5 -22.5q25 -65 25 -150q0 -139 -80 -247t-233 -156q-33 17 -50 53t-14 74z" />
<glyph unicode="&#x201a;" horiz-adv-x="509" d="M51 -193q61 22 110 68.5t50 106.5q-66 9 -88 26q-23 44 -23 111q0 76 23 114q64 33 141 33q35 0 76 -9.5t63 -23.5q25 -63 25 -149q0 -138 -79.5 -246t-233.5 -157q-33 17 -50 52.5t-14 73.5z" />
<glyph unicode="&#x201c;" horiz-adv-x="950" d="M78 1196q0 138 80 245.5t233 155.5q34 -17 51.5 -52t12.5 -72q-61 -25 -109 -70t-51 -105q75 -14 90 -28q9 -15 16 -48t7 -61t-7 -62.5t-16 -51.5q-23 -14 -64.5 -23.5t-76.5 -9.5q-37 0 -78.5 9t-63.5 24q-24 67 -24 149zM518 1196q0 138 80 245.5t233 155.5 q34 -17 51.5 -52t12.5 -72q-61 -25 -109 -70t-51 -105q75 -14 90 -28q9 -15 16 -48t7 -61t-7 -62.5t-16 -51.5q-23 -14 -64.5 -23.5t-76.5 -9.5q-37 0 -77.5 9t-63.5 24q-25 70 -25 149z" />
<glyph unicode="&#x201d;" horiz-adv-x="950" d="M55 1139q61 22 110 68t52 106q-68 9 -90 26q-23 44 -23 109q0 79 23 117q62 32 141 32q36 0 77.5 -9.5t62.5 -22.5q24 -63 24 -150q0 -139 -80 -247t-233 -156q-33 17 -50 53t-14 74zM498 1139q61 22 109.5 68t51.5 106q-68 9 -90 26q-22 42 -22 109q0 81 22 117 q62 32 142 32q36 0 76.5 -9.5t62.5 -22.5q24 -63 24 -150q0 -139 -80 -247t-233 -156q-33 17 -49.5 53t-13.5 74z" />
<glyph unicode="&#x201e;" horiz-adv-x="952" d="M51 -193q61 22 110 68.5t50 106.5q-66 9 -88 26q-23 44 -23 111q0 76 23 114q64 33 141 33q35 0 76 -9.5t63 -23.5q25 -63 25 -149q0 -138 -79.5 -246t-233.5 -157q-33 17 -50 52.5t-14 73.5zM492 -193q61 22 109.5 68.5t49.5 106.5q-66 9 -88 26q-22 42 -22 111 q0 78 22 114q64 33 142 33q35 0 76 -9.5t63 -23.5q24 -60 24 -149q0 -138 -79.5 -246t-233.5 -157q-33 17 -49.5 52.5t-13.5 73.5z" />
<glyph unicode="&#x2022;" horiz-adv-x="931" d="M209 555q0 38 8.5 96t24.5 92q42 24 107 40t122 16q55 0 119 -16t106 -40q15 -34 23 -91t8 -97q0 -41 -8 -100t-23 -93q-38 -25 -102.5 -40t-122.5 -15q-61 0 -125 15t-104 40q-15 34 -24 94t-9 99z" />
<glyph unicode="&#x202f;" horiz-adv-x="377" />
<glyph unicode="&#x2039;" horiz-adv-x="698" d="M56 522q0 48 14 80l405 383q43 -12 88 -54.5t58 -84.5l-269 -320l277 -325q-13 -42 -59 -84t-91 -54l-409 379q-14 32 -14 80z" />
<glyph unicode="&#x203a;" horiz-adv-x="698" d="M68 848q13 42 59 83.5t90 53.5l412 -381q12 -31 12 -78.5t-12 -79.5l-406 -383q-44 12 -87.5 54.5t-57.5 85.5l266 319z" />
<glyph unicode="&#x205f;" horiz-adv-x="472" />
<glyph unicode="&#x20ac;" horiz-adv-x="1153" d="M27 502q0 42 10 86h147q-2 25 -2 74q0 48 2 73h-147q-10 41 -10 84q0 44 10 88h166q18 98 52 176.5t89 141t138 97t190 34.5q122 0 239 -46t213 -128q-8 -45 -40 -91.5t-74 -70.5q-69 54 -149 85.5t-152 31.5q-96 0 -153.5 -56.5t-84.5 -173.5h375q10 -44 10 -88 q0 -43 -10 -84h-395v-73v-74h395q10 -44 10 -86q0 -45 -10 -86h-373q50 -226 236 -226q72 0 152 31.5t149 83.5q45 -26 75.5 -70.5t38.5 -91.5q-95 -81 -213 -126.5t-239 -45.5q-388 0 -469 445h-166q-10 41 -10 86z" />
<glyph unicode="&#x25fc;" horiz-adv-x="1034" d="M0 0v1034h1034v-1034h-1034z" />
</font>
</defs>
</svg>
